<svg width="96" height="150" viewBox="0 0 96 150" fill="none" xmlns="http://www.w3.org/2000/svg">
<path d="M20.794 114.838C20.6424 114.785 20.4908 114.731 20.316 114.611C20.3259 113.938 20.3411 113.332 20.3953 112.728C20.6177 110.252 20.7946 107.77 21.0975 105.302C21.4201 102.675 21.8604 100.061 22.262 97.4431C22.3815 96.6637 22.5435 95.8905 22.6861 95.1145C22.6713 95.1127 22.6564 95.1109 22.6415 95.109C21.4894 98.4561 20.3372 101.803 19.185 105.15C19.1243 105.142 19.0635 105.133 19.0028 105.125C18.8584 104.773 18.6935 104.427 18.5734 104.067C18.2491 103.096 17.7028 102.166 18.0232 101.074C18.2922 100.157 18.5283 99.231 18.764 98.3053C18.862 97.9202 19.0361 97.5081 18.9757 97.139C18.8089 96.1195 18.554 95.1121 18.2927 94.11C18.2352 93.8894 18.0072 93.7106 17.8587 93.4788C17.8684 93.4008 17.8772 93.3567 17.8916 93.3029C17.8973 93.2933 17.9178 93.2536 17.9242 93.2166C18.3568 92.042 18.7831 90.9044 19.2327 89.7426C19.3455 89.5128 19.4296 89.3048 19.5255 89.1021C19.6513 88.8362 19.5369 88.6846 19.3283 88.4932C18.279 87.5306 17.2423 86.5544 16.2292 85.5562C15.9554 85.2864 15.7795 84.9232 15.5587 84.6029C15.6048 84.5608 15.6509 84.5186 15.697 84.4764C17.4139 85.1685 18.7313 86.424 20.1655 87.5546C19.9772 87.1068 19.7463 86.6969 19.4587 86.3285C18.6658 85.3124 17.8074 84.342 17.0572 83.298C16.5873 82.6441 16.4113 81.8653 16.6014 80.9875C17.0068 81.4921 17.3657 81.9387 17.7383 82.4037C17.7726 82.4453 17.7966 82.4646 17.8257 82.4961C17.8443 82.525 17.8613 82.5375 17.8783 82.5501C17.8607 82.5262 17.8431 82.5023 17.8121 82.4597C17.7788 82.4174 17.7553 82.3975 17.7281 82.3437C17.4095 81.5046 17.0911 80.7035 16.7727 79.9024C16.8045 79.8731 16.8363 79.8438 16.868 79.8144C17.3388 80.0982 17.8386 80.3455 18.2749 80.6726C19.4825 81.5778 20.3182 82.7772 21.0286 84.069C21.1607 84.3092 21.3362 84.527 21.4917 84.7551C21.5634 84.7498 21.6351 84.7444 21.7068 84.739C21.7926 84.3827 22.0696 83.9217 21.933 83.6871C21.094 82.2461 20.3111 80.7538 19.0133 79.6184C20.4424 78.2307 21.8711 76.8426 23.3006 75.4554C24.6724 74.124 26.0449 72.7934 27.4612 71.4342C27.8222 71.6446 28.1393 71.8834 28.4383 72.1562C27.5574 73.0462 26.7058 73.9131 25.8292 74.7556C24.2854 76.2394 22.727 77.7089 21.1731 79.1828C20.972 79.3735 20.8094 79.5364 21.069 79.8221C21.4591 80.2516 21.8183 80.7086 22.1732 81.1666C22.4354 81.5048 22.6698 81.8632 22.9583 82.2716C23.4754 81.4166 23.935 80.6104 24.4398 79.8318C25.394 78.3602 26.3507 76.8891 27.3517 75.4474C28.0111 74.4975 28.7498 73.5992 29.4858 72.682C30.0142 72.8831 30.5031 73.0977 31.0069 73.2721C31.5233 73.4509 32.0542 73.5904 32.6101 73.7659C34.9122 74.4536 37.0034 74.0643 38.9555 72.6895C38.9814 72.8822 39.0073 72.9889 39.0084 73.0959C39.0191 74.1965 39.3708 75.2064 39.9723 76.1168C40.4829 76.8896 41.1405 77.5367 42.1534 77.765C43.5303 78.702 45.0044 79.1143 46.6543 78.8267C47.9062 78.6084 48.9539 78.0105 49.922 77.2034C49.9994 77.3274 50.0978 77.4577 50.0765 77.5661C50.0121 77.8945 49.8687 78.2092 49.8147 78.5383C49.6142 79.7586 49.0792 80.7516 48.01 81.4956C46.6639 82.4324 45.24 82.7349 43.6764 82.1864C41.9477 81.58 40.7276 80.3701 39.7248 78.9234C39.5091 78.6122 39.2825 78.3081 38.997 77.9123C38.814 78.2757 38.6582 78.5497 38.5345 78.8366C37.931 80.2363 37.3495 81.645 36.7354 83.0402C35.3667 86.1497 34.346 89.3712 33.5058 92.644C32.8655 95.1385 32.2932 97.6512 31.7701 100.171C31.3776 102.062 31.0835 103.974 30.7972 105.884C30.511 107.792 30.2949 109.711 30.0351 111.623C29.9597 112.178 30.0629 112.327 30.6248 112.219C32.2843 111.901 33.9538 111.614 35.5909 111.207C38.0812 110.588 40.3932 109.526 42.5732 108.22C45.2798 106.598 47.6754 104.609 49.752 102.264C51.6653 100.104 53.2341 97.733 54.367 95.1038C54.6817 94.3737 54.8912 93.601 55.156 92.8445C55.163 92.8412 55.1639 92.823 55.1639 92.823C55.1639 92.823 55.1473 92.8462 55.1157 92.8553C55.0227 92.9159 54.9592 92.9653 54.9003 93.0193C53.1788 94.6004 51.5278 96.2629 49.7159 97.7396C48.057 99.0917 46.271 100.313 44.4543 101.463C42.762 102.534 40.9568 103.437 39.1969 104.407C39.0184 104.505 38.8092 104.551 38.6142 104.621C39.8012 103.508 41.0227 102.494 42.2478 101.485C44.4633 99.6599 46.5136 97.674 48.252 95.4137C49.8467 93.3401 51.0894 91.0787 51.8224 88.5683C52.3997 86.5916 52.5726 84.5799 52.4616 82.5424C52.3402 80.3163 52.0101 78.1015 52.1696 75.8612C52.2694 74.4602 52.5482 73.104 53.1306 71.8234C53.45 71.1212 53.8851 70.4684 54.2494 69.8264C53.2287 70.1992 52.164 70.5593 51.1235 70.9761C49.9849 71.4323 48.8238 71.869 48.0118 72.8479C47.9535 72.9182 47.8104 72.9223 47.7072 72.9226C47.9785 72.4385 48.2492 71.9889 48.5548 71.537C49.4409 71.0223 49.7463 70.2141 49.7841 69.3099C49.8027 68.8656 49.9443 68.7393 50.3863 68.7413C51.6146 68.7467 52.796 68.4867 53.9437 68.0665C54.2258 67.9632 54.3934 67.8128 54.3573 67.5041C54.3565 67.5033 54.3573 67.5051 54.3792 67.5035C54.4301 67.4904 54.4497 67.4703 54.4984 67.427C54.6492 67.3933 54.7661 67.3872 54.8734 67.353C56.2187 66.9232 57.5625 66.4893 58.9014 66.0895C58.8228 66.2268 58.7531 66.3336 58.6757 66.4348C58.2335 67.0122 57.8029 67.5812 57.6943 68.3354C57.5348 69.4432 58.5414 70.411 59.656 70.121C61.3693 69.6752 62.4722 68.5022 63.2136 67.0232C63.6591 66.1346 63.1132 65.228 62.1126 65.0022C61.732 64.9162 61.3301 64.9184 60.9545 64.8519C61.1737 64.5932 61.3762 64.3631 61.5787 64.1329C63.2837 64.1184 64.4887 65.2777 64.6457 67.1283C64.6954 67.7138 64.6768 68.3083 64.6406 68.8958C64.6178 69.2663 64.7427 69.5191 65.0048 69.7814C68.5118 73.2923 72.0076 76.8138 75.5021 80.3879C75.0674 80.9038 74.5843 81.3283 74.2162 81.8319C73.1808 83.2478 72.2393 84.7296 71.1747 86.1236C69.7465 87.9936 68.0358 89.5268 65.5177 89.9582C65.0486 89.5993 64.6122 89.2488 64.1623 88.8688C63.0606 87.7512 61.9687 86.6667 60.8864 85.5733C60.4888 85.1716 60.1139 84.7488 59.7183 84.3014C59.6459 84.1739 59.5862 84.0791 59.5216 83.9876C58.4347 82.4471 57.3153 80.927 56.2719 79.3593C55.6436 78.4153 55.1334 77.3973 54.4908 76.2738C54.6628 77.9226 54.7276 79.4544 55.0002 80.9505C55.4381 83.354 55.9931 85.7382 56.5372 88.1223C56.9682 90.011 57.4199 91.9029 57.4002 93.842C57.3863 95.2079 57.1938 96.5747 57.0351 97.936C56.6109 101.574 55.3137 104.879 52.9414 107.755C52.6599 108.096 52.3053 108.381 51.9826 108.69C51.9808 108.688 51.9768 108.685 51.9842 108.652C52.0742 108.482 52.1531 108.343 52.24 108.208C53.3585 106.471 54.347 104.673 55.0629 102.725C55.0758 102.692 55.0755 102.67 55.0752 102.648C55.0661 102.677 55.0571 102.706 55.0145 102.74C54.864 102.83 54.7368 102.906 54.6319 103.003C53.683 103.886 52.8027 104.852 51.7772 105.641C50.155 106.889 48.4997 108.118 46.7432 109.174C44.3 110.644 41.6553 111.748 38.873 112.477C37.1761 112.921 35.4525 113.303 33.7175 113.568C32.0652 113.821 30.3826 113.889 28.713 114.034C28.3961 114.061 28.2119 113.984 28.2849 113.6C28.6907 111.466 29.0748 109.328 29.4736 107.193C29.9019 104.9 30.3499 102.61 30.7556 100.313C30.8021 100.05 30.6903 99.7213 30.554 99.4734C29.8731 98.2343 29.135 97.0244 28.466 95.7796C28.0302 94.9687 27.678 94.1154 27.2884 93.2812C27.2634 93.2863 27.2383 93.2915 27.2133 93.2966C27.2676 95.1326 27.3219 96.9686 27.3763 98.8046C25.9597 96.7037 25.1409 94.3986 24.6539 91.9572C24.5435 92.1155 24.4881 92.2625 24.4512 92.4138C24.2692 93.1597 24.0661 93.9019 23.9178 94.6542C23.2599 97.9914 22.5175 101.317 21.9987 104.675C21.4781 108.045 21.1862 111.449 20.794 114.838ZM30.4982 80.6205C30.3245 80.9578 30.1312 81.2873 29.984 81.6352C29.8867 81.8651 29.7688 82.1357 29.8087 82.3636C30.1441 84.2821 30.9952 86.0049 32.0469 87.6386C32.3264 88.0726 32.7027 88.4479 33.0346 88.8502C33.0809 88.8294 33.1272 88.8086 33.1735 88.7878C33.038 87.2825 32.9026 85.7771 32.7672 84.2718C32.7892 84.2686 32.8113 84.2654 32.8334 84.2622C33.2276 85.0952 33.6219 85.9283 34.0161 86.7614C34.0681 86.744 34.1201 86.7266 34.1722 86.7092C34.2047 86.6234 34.244 86.5394 34.2686 86.4516C35.0908 83.5245 36.2815 80.7484 37.8639 78.1289C37.9656 77.9604 37.9583 77.7068 37.9403 77.4979C37.8829 76.8334 37.7491 76.1722 37.7367 75.5081C37.7274 75.0102 37.8599 74.5098 37.9338 73.9784C37.8463 74.0056 37.7615 74.0124 37.7017 74.0534C36.4056 74.9437 34.968 75.3342 33.379 75.3011C32.9379 75.2919 32.4048 75.3721 32.0658 75.6126C31.1854 76.2371 30.6891 77.1664 30.2224 78.1482C29.9579 78.2768 29.5853 78.3405 29.4525 78.5483C29.2202 78.9118 29.0808 79.3545 29.0035 79.7813C28.9236 80.2225 28.9726 80.699 29.4492 80.9503C29.9347 81.2063 30.1834 80.7767 30.4982 80.6205ZM67.7672 79.2153C68.2732 79.7186 68.835 80.1803 69.273 80.7341C70.0787 81.7528 70.6265 82.9051 70.8419 84.2651C70.9236 84.15 70.9628 84.1057 70.9899 84.0552C71.6206 82.8755 72.3391 81.7534 73.2826 80.78C73.7328 80.3156 73.7342 80.2149 73.2756 79.7574C72.1272 78.6121 70.9827 77.4631 69.8306 76.3213C67.9982 74.5053 66.1611 72.6937 64.3247 70.8815C64.1914 70.7499 64.0475 70.6285 63.8412 70.4412C63.1619 72.2231 62.1985 73.7378 60.8223 74.9165C63.169 76.3642 65.4423 77.7665 67.7672 79.2153ZM29.4074 76.9647C29.807 76.3045 30.2132 75.6478 30.6007 74.981C30.6819 74.8412 30.7704 74.5531 30.725 74.5238C30.5606 74.4179 30.3024 74.2977 30.1487 74.3555C29.6991 74.5246 29.1598 74.6788 28.8754 75.0141C27.8014 76.2804 26.7334 77.5652 25.8147 78.9384C24.58 80.7838 23.4617 82.7043 22.3387 84.6175C21.3762 86.257 20.519 87.9483 20.0724 89.8044C19.7566 91.1167 19.7257 92.0108 20.0089 92.861C20.3227 91.6801 20.6183 90.5679 20.9139 89.4556C20.9311 89.4604 20.9483 89.4652 20.9655 89.4699C20.9655 91.4068 20.9655 93.3437 20.9655 95.2806C21.0058 95.2854 21.046 95.2902 21.0863 95.295C21.3001 94.6146 21.5006 93.93 21.73 93.2546C22.8708 89.8957 24.3867 86.6862 25.9514 83.5017C27.0269 81.3131 28.2236 79.1804 29.4074 76.9647ZM25.1368 91.8589C25.1963 92.2164 25.2877 92.5728 25.7149 92.6562C26.1559 92.7423 26.421 92.4574 26.6265 92.1345C26.9698 91.5952 27.0808 91.0041 26.9143 90.3906C26.7335 89.7247 26.1286 89.5857 25.6549 90.0976C25.2143 90.5739 25.0636 91.1499 25.1368 91.8589ZM31.1854 92.1349C31.0987 92.6132 30.9303 93.0959 30.9575 93.568C30.9725 93.8296 31.2624 94.1792 31.5219 94.2995C31.8695 94.4607 32.1613 94.1676 32.3681 93.8798C32.7124 93.4008 32.8685 92.8535 32.7478 92.2936C32.6851 92.0029 32.4739 91.6574 32.222 91.5107C31.8785 91.3106 31.5858 91.6141 31.3511 91.8704C31.2972 91.9292 31.2599 92.0024 31.1854 92.1349ZM22.7234 94.7847L22.7333 94.754C22.7333 94.754 22.7108 94.7735 22.7234 94.7847Z" fill="#D0D4D7"/>
<path d="M48.8068 35.632C48.9643 35.4655 49.1218 35.299 49.3241 35.0909C49.528 34.9184 49.6882 34.7887 49.8463 34.6565C50.1859 34.3726 50.5244 34.0874 50.9056 33.8027C52.2551 33.8412 53.5748 33.7824 54.8669 33.9386C57.4531 34.2513 59.9568 34.9324 62.3926 35.8343C63.744 36.3346 65.0888 36.8517 66.4345 37.3618C66.4324 37.3623 66.4325 37.3582 66.4453 37.3758C66.4766 37.4157 66.4967 37.4365 66.544 37.4734C66.5997 37.5649 66.6301 37.6387 66.6365 37.7393C65.6708 38.4711 65.0947 39.4334 64.6178 40.4597C64.1952 41.369 63.6226 42.1416 62.7025 42.6413C62.1712 42.9298 61.8111 43.3946 61.7225 43.9614C61.5852 44.8396 61.506 45.7311 61.477 46.6192C61.4356 47.8837 61.4317 49.1445 60.7485 50.3308C61.0255 50.2455 61.2903 50.1374 61.4705 49.952C61.8421 49.5696 62.1671 49.1449 62.5139 48.7397C63.4548 47.6402 64.2819 46.4106 65.8302 46.0032C66.4779 46.0773 67.1699 46.0353 67.7645 46.2485C69.2013 46.7634 69.9163 47.9012 70.0762 49.3282C70.2482 50.8625 69.575 52.0708 68.2702 52.9187C66.8384 53.8492 65.1346 53.8952 63.9507 53.0895C63.7364 52.9436 63.5387 52.7748 63.2938 52.5759C63.0354 52.0667 62.8164 51.5983 62.5943 51.1232C62.2515 51.8272 61.9428 52.532 61.574 53.2059C60.1678 55.7757 58.227 57.9083 55.7881 59.5885C53.136 61.4157 50.1995 62.5396 46.9273 62.8237C44.633 63.0229 42.3928 62.8103 40.1823 62.2306C38.4208 61.7687 36.7854 61.0273 35.2408 60.0857C34.779 59.8042 34.2593 59.6024 34.4147 58.9217C34.4262 58.8713 34.3671 58.8057 34.3457 58.7101C34.5336 58.0167 34.716 57.3605 34.2206 56.6805C33.9693 57.4717 33.6861 58.174 33.025 58.6392C32.7587 58.2242 32.5632 57.7881 32.248 57.4603C31.1384 56.3063 30.5967 54.9572 30.5878 53.388C30.5857 53.0106 30.6937 52.9059 31.111 52.9501C32.3923 53.0859 33.6754 53.0999 34.8876 52.5671C35.5423 52.2793 36.1854 51.9669 36.8333 51.6651C36.833 51.6646 36.832 51.6639 36.8296 51.7044C36.5449 53.2636 36.7711 54.7077 37.5486 56.0543C38.9792 58.5323 41.269 59.6995 44.0978 59.902C46.7698 60.0932 49.3512 59.6141 51.8111 58.5782C53.4145 57.9029 54.7278 56.8894 55.4765 55.3191C55.7485 54.7485 56.0516 54.1465 55.8712 53.3626C55.5218 53.7416 55.2421 54.045 54.9597 54.3085C55.2806 52.3545 54.0528 50.4829 52.4674 50.4734C53.5648 51.337 53.6489 52.6306 52.6703 53.6448C51.9648 54.3759 51.0973 54.8541 50.1039 55.0915C49.2721 55.2903 48.4405 55.3297 47.7231 54.6978C47.4882 53.7316 47.2646 52.8011 47.008 51.8792C46.948 51.6634 46.7765 51.4768 46.652 51.2456C46.6485 51.1725 46.6493 51.1306 46.6585 51.0772C46.6739 51.0354 46.6643 51.0113 46.6306 50.9541C46.3644 50.0487 46.1055 49.1826 45.8668 48.2908C46.7232 47.6932 46.9118 46.947 46.477 46.0192C48.9809 44.9436 50.434 43.1486 50.6614 40.5085C50.2885 40.972 50.0073 41.4992 49.6503 41.9726C48.9804 42.8613 48.2081 43.6463 47.0139 43.848C46.048 44.011 45.1096 43.9008 44.5416 43.0588C44.0621 42.3479 43.7637 41.5222 43.3852 40.7473C44.5637 39.6768 45.7452 38.6094 46.9185 37.5336C47.1934 37.2815 47.4407 37.0012 47.7405 36.7206C48.6975 37.8693 50.0317 38.3187 51.412 38.654C51.8729 38.766 52.2074 38.3297 52.0236 37.8923C51.9246 37.6566 51.7268 37.4193 51.5079 37.2788C50.6214 36.7096 49.7094 36.1776 48.8068 35.632ZM65.741 49.3605C65.741 49.3605 65.7419 49.3614 65.7139 49.4209C65.4759 49.8192 65.163 50.1932 65.0159 50.6208C64.7398 51.4235 65.3264 52.1037 66.1912 52.0485C67.0582 51.9931 67.7376 51.5757 68.2038 50.892C68.9113 49.8543 68.4272 48.6712 67.1922 48.3164C65.9265 47.9527 64.1076 48.9342 63.6447 50.2308L63.6451 50.252C63.6451 50.252 63.6639 50.2272 63.7331 50.2159C63.8884 50.1284 64.0362 50.0234 64.2006 49.9567C64.7103 49.7498 65.2264 49.5574 65.741 49.3605ZM53.481 49.5515C54.2505 50.8865 55.3839 51.6144 57.001 51.5757C57.643 51.5604 58.2033 51.3786 58.4712 50.7998C58.7579 50.1803 58.5688 49.5585 58.1359 49.0596C57.2998 48.096 56.2455 47.5722 54.902 47.622C53.6805 47.6674 53.1431 48.3218 53.481 49.5515ZM56.4452 39.4778C56.4314 40.0094 56.6362 40.275 57.2754 40.3136C58.3246 40.3769 59.3796 40.3962 60.4306 40.3707C61.0179 40.3565 61.6068 40.2366 62.1841 40.1157C62.3365 40.0838 62.5345 39.8828 62.5552 39.7385C62.5757 39.5946 62.4171 39.4113 62.3035 39.2708C62.2386 39.1905 62.1106 39.1521 62.0047 39.11C60.82 38.6399 59.583 38.4771 58.3224 38.6418C57.6526 38.7293 56.9321 38.7979 56.4452 39.4778ZM57.8713 43.4255C57.0637 42.408 55.9295 42.0991 54.5077 42.5274C54.1253 42.6426 53.5817 42.7137 53.6074 43.1954C53.6352 43.7157 54.2076 43.7322 54.6134 43.7771C55.5096 43.8762 56.3495 44.0942 57.1433 44.5268C57.3307 44.6289 57.732 44.5917 57.8854 44.4577C58.0371 44.3251 58.0141 43.9904 58.0372 43.7416C58.0447 43.6611 57.9556 43.5722 57.8713 43.4255ZM49.2137 39.2843C48.2004 39.2887 47.3494 40.1068 47.3119 41.1127C47.2835 41.875 47.7658 42.1993 48.4955 41.8867C49.2045 41.5829 49.6418 41.0448 49.8254 40.3165C49.9584 39.7889 49.8242 39.5381 49.2137 39.2843Z" fill="#FDAF82"/>
<path d="M59.5938 5.49817C59.8359 5.68083 60.0915 5.84909 60.3171 6.0492C60.7608 6.44276 60.7257 6.42843 61.0775 5.92937C61.527 5.29171 62.0342 4.69229 62.5459 4.10061C62.3703 4.42934 62.1681 4.73568 61.9598 5.03806C60.6926 6.87753 60.1042 8.89552 60.1868 11.1126C60.3317 15.0029 62.2265 17.8769 65.6744 19.7364C68.6171 21.3233 71.7359 21.4045 74.8258 20.1169C77.2425 19.1098 79.0302 17.4203 80.1632 15.0864C80.914 13.5398 81.1459 11.9248 81.0988 10.2358C81.0511 8.52456 80.538 6.95718 79.6101 5.52943C79.0876 4.72543 78.4271 4.00573 77.8288 3.24805C78.343 3.73279 78.9311 4.16324 79.359 4.71132C81.6628 7.66232 82.2801 10.9359 81.2276 14.4994C81.2004 14.5915 81.17 14.6832 81.1502 14.7769C81.1409 14.8211 81.1533 14.8696 81.1583 14.96C81.3363 15.0088 81.5199 15.0681 81.7078 15.1093C85.8476 16.0169 89.0458 19.3561 89.6579 23.4128C90.5345 29.2224 86.0891 34.529 80.061 34.8641C77.1868 35.0239 74.6718 34.1596 72.5237 32.3141C72.186 32.024 71.95 31.9886 71.6042 32.2666C70.6034 33.071 69.5852 33.8549 68.519 34.6457C68.3221 34.4901 68.2022 34.3068 68.0345 34.1858C66.965 33.4143 65.9296 32.5868 64.8001 31.9074C61.4019 29.8633 57.7303 28.6549 53.6799 28.722C54.3204 26.863 54.961 25.0039 55.6194 23.0931C55.1263 23.1536 54.6769 23.2187 54.2252 23.2626C51.316 23.5453 48.7316 22.7606 46.5167 20.9324C42.0657 17.2584 41.6391 10.8423 45.5343 6.61324C45.7511 6.37788 46.0038 6.17364 46.2702 5.98476C45.7848 6.73056 45.2004 7.40955 44.7654 8.16899C43.0419 11.1777 43.0792 14.2689 44.7573 17.2338C46.7846 20.8155 50.6199 22.5531 54.7026 21.9645C57.2467 21.5978 59.3588 20.3879 60.8984 18.3616C61.6191 17.4132 61.7143 17.6555 61.0075 16.6448C60.9615 16.5791 60.9291 16.5043 60.8916 16.4332C59.2906 13.3976 59.133 10.2942 60.4554 7.13389C60.6032 6.78066 60.5751 6.54681 60.2931 6.28744C60.0349 6.05004 59.825 5.76322 59.5938 5.49817ZM71.2585 27.5413C71.7543 29.106 72.6405 30.4349 73.8926 31.5217C75.5644 32.973 77.5483 33.7349 79.7818 33.7955C82.0528 33.8571 84.0803 33.171 85.8522 31.7625C87.8775 30.1526 88.9983 28.0711 89.1844 25.5715C89.394 22.758 88.4383 20.3229 86.2993 18.366C84.7718 16.9686 82.9574 16.1789 80.8651 16.0075C80.7467 15.9978 80.551 16.1129 80.4991 16.2194C79.9114 17.4244 79.0662 18.4401 78.0505 19.3176C76.3178 20.8149 74.2906 21.7293 71.9813 21.9783C71.4268 22.038 71.1893 22.2434 71.0918 22.7319C70.7744 24.3223 70.7412 25.9023 71.2585 27.5413ZM62.2683 28.424C62.3342 28.5163 62.3788 28.648 62.4696 28.694C62.8633 28.8935 63.2814 29.0491 63.6694 29.2576C63.9771 29.423 64.1192 29.3325 64.2946 29.0646C65.0089 27.9736 65.6724 26.8386 66.5034 25.8356C67.357 24.8052 67.1906 23.5968 67.4979 22.3874C67.0151 22.3874 66.6051 22.4139 66.2005 22.3798C65.8153 22.3474 65.5627 22.5013 65.3931 22.8034C64.3538 24.6537 63.3208 26.5072 62.2683 28.424ZM62.7551 23.8505C63.0646 23.2437 63.3741 22.6368 63.698 22.0018C63.2278 21.8113 62.8247 21.6729 62.4465 21.4869C62.1489 21.3405 61.9705 21.3908 61.8078 21.6666C60.9433 23.1321 60.0532 24.5836 59.2091 26.0598C58.9212 26.5635 58.7411 27.1251 58.4851 27.7225C59.0296 27.8131 59.4893 27.8534 59.926 27.9726C60.3423 28.0862 60.5471 27.9694 60.7372 27.6025C61.3792 26.3634 62.0575 25.1421 62.7551 23.8505ZM65.7395 30.5927C66.0861 30.8794 66.4327 31.1661 66.8141 31.4815C67.1752 31.0047 67.496 30.5433 67.8572 30.114C68.2664 29.6276 68.5003 29.1941 68.074 28.5534C67.7551 28.0744 67.637 27.4697 67.4066 26.8606C67.2641 26.9715 67.152 27.0332 67.0748 27.1229C66.5374 27.7475 66.0016 28.3734 65.4763 29.0075C64.7477 29.8872 64.7518 29.8905 65.7395 30.5927ZM56.7771 25.2562C56.4024 26.1159 56.0277 26.9755 55.6248 27.8998C55.8898 27.8794 56.0495 27.8581 56.2093 27.8564C56.7354 27.8508 57.0186 27.653 57.1412 27.1008C57.4102 25.8886 57.9693 24.7845 58.7047 23.7668C58.7786 23.6646 58.818 23.539 58.8904 23.3889C57.9829 23.4493 57.2386 23.5959 57.0728 24.5722C57.0364 24.7861 56.8975 24.9835 56.7771 25.2562ZM69.6929 30.9564C69.3024 30.4436 69.254 30.4446 68.855 30.9546C68.5468 31.3485 68.227 31.7342 67.9283 32.1347C67.8375 32.2564 67.7997 32.4153 67.7103 32.6195C68.4459 32.1359 69.0944 31.7153 69.7312 31.2787C69.7764 31.2477 69.7357 31.099 69.6929 30.9564Z" fill="#B1B0CF"/>
<path d="M77.8216 3.23236C78.4271 4.00519 79.0876 4.72489 79.6101 5.52889C80.538 6.95664 81.0511 8.52402 81.0988 10.2353C81.1459 11.9243 80.914 13.5392 80.1632 15.0859C79.0302 17.4198 77.2425 19.1092 74.8258 20.1163C71.7359 21.4039 68.6171 21.3228 65.6744 19.7358C62.2265 17.8764 60.3317 15.0024 60.1868 11.112C60.1042 8.89498 60.6926 6.87699 61.9598 5.03752C62.1681 4.73514 62.3703 4.4288 62.5775 4.08985C62.5796 4.05542 62.5773 4.05158 62.6118 4.04632C62.8216 3.85356 62.997 3.66604 63.1724 3.47853C63.1724 3.47853 63.1669 3.47417 63.1892 3.46241C63.2353 3.4318 63.2551 3.40957 63.2708 3.38397C63.2708 3.38397 63.2681 3.37611 63.2988 3.3732C63.3712 3.33426 63.413 3.29822 63.4547 3.26218C63.4547 3.26218 63.4578 3.27 63.4761 3.25716C63.5143 3.21604 63.5342 3.18776 63.554 3.15948C63.5605 3.13181 63.5758 3.10997 63.6501 3.08286C63.7546 3.01852 63.809 2.96529 63.8634 2.91207C65.2004 1.80704 66.7608 1.13978 68.4639 0.809796C71.2121 0.277334 73.8129 0.714253 76.2308 2.09182C76.6803 2.34792 77.0763 2.69238 77.5295 3.03254C77.5763 3.08075 77.5926 3.08879 77.6109 3.09313C77.6109 3.09313 77.6158 3.08896 77.6334 3.11081C77.6968 3.15358 77.7425 3.17449 77.7882 3.19541C77.7882 3.19541 77.8143 3.21721 77.8216 3.23236ZM71.4678 11.2506C71.5823 11.2393 71.7011 11.2432 71.8108 11.2144C72.7766 10.9606 73.7462 10.9364 74.7449 11.0267C75.9497 11.1357 77.1564 11.0467 78.2632 10.4943C79.0359 10.1086 79.6226 9.56073 79.8189 8.68555C80.0203 7.78744 79.8763 6.93189 79.5176 6.10918C78.5945 3.99232 76.934 2.63094 74.7315 1.88691C72.4752 1.12469 70.1793 0.947802 67.8335 1.53437C65.6568 2.07867 63.9475 3.2425 62.7199 5.05141C62.1308 5.91946 61.863 6.90132 62.166 7.93076C62.5742 9.31791 63.5232 10.3252 64.7546 11.0857C65.8974 11.7915 67.1175 11.9965 68.3709 11.3907C68.9109 11.1297 69.4072 10.775 69.8988 10.43C70.8699 9.74843 71.7416 8.92672 72.8898 8.50102C73.7272 8.19058 74.5549 8.12383 75.3703 8.55076C75.7176 8.73265 76.0261 8.96493 75.925 9.41231C75.8262 9.84997 75.4749 10.0297 75.0591 10.0784C74.7498 10.1146 74.4318 10.075 74.1204 10.0999C73.077 10.1835 72.1219 10.4761 71.3483 11.2502C71.3359 11.2671 71.3234 11.284 71.3109 11.3009C71.3357 11.2838 71.3604 11.2668 71.4678 11.2506Z" fill="#CFD4D8"/>
<path d="M59.5948 5.49573C59.825 5.76239 60.0349 6.04921 60.2931 6.28661C60.5752 6.54598 60.6033 6.77982 60.4555 7.13306C59.133 10.2934 59.2906 13.3968 60.8916 16.4323C60.9292 16.5035 60.9616 16.5783 61.0075 16.644C61.7144 17.6547 61.6191 17.4123 60.8985 18.3608C59.3589 20.3871 57.2468 21.5969 54.7027 21.9637C50.62 22.5523 46.7847 20.8147 44.7574 17.2329C43.0792 14.2681 43.042 11.1769 44.7655 8.16816C45.2005 7.40872 45.7849 6.72973 46.304 5.98067C46.3074 5.94758 46.3085 5.95266 46.3456 5.95071C46.5354 5.79934 46.6879 5.64991 46.8404 5.50048C47.0929 5.3141 47.3453 5.1277 47.64 4.92498C47.6823 4.90865 47.7151 4.88342 47.7151 4.88342C50.5816 3.13678 53.6145 2.82477 56.7859 3.94971C57.441 4.18208 58.0366 4.57216 58.7034 4.90742C58.7473 4.92529 58.7743 4.9268 58.7743 4.9268C58.905 5.00751 59.0356 5.08822 59.1927 5.22694C59.3444 5.35518 59.4698 5.42539 59.5951 5.49562C59.5951 5.49562 59.5957 5.49412 59.5948 5.49573ZM55.2965 4.71309C54.6215 4.24433 53.8446 4.05124 53.0497 4.16739C52.1113 4.30452 51.165 4.49551 50.2722 4.80085C47.7782 5.65373 45.8825 7.21241 44.6862 9.52624C44.0491 10.7585 43.6474 12.0425 43.7634 13.4446C43.8686 14.7167 44.8614 15.4546 45.8409 14.8657C46.9311 14.2101 47.9114 13.3826 48.9396 12.6299C48.9066 12.5815 48.8737 12.5331 48.8407 12.4848C47.5719 12.4923 46.577 13.1324 45.6417 13.912C45.6029 13.8256 45.5762 13.7953 45.5802 13.7695C45.59 13.7076 45.6034 13.642 45.6342 13.588C46.086 12.798 46.7322 12.1914 47.5646 11.7999C48.9766 11.1357 50.5347 11.1591 52.0447 10.9579C53.8992 10.7108 55.4681 10.0695 56.223 8.21691C56.7295 6.97414 56.3865 5.48258 55.2965 4.71309Z" fill="#CFD4D8"/>
<path d="M82.2469 90.2287C82.575 91.2809 82.8807 92.3074 83.1885 93.3333C83.3359 93.8243 83.1872 94.2377 82.7717 94.519C81.4353 95.424 80.139 96.4027 78.7259 97.1796C74.9408 99.2605 71.1197 101.281 67.2776 103.262C65.8557 103.995 64.3382 104.555 62.8574 105.178C62.6373 105.27 62.3779 105.319 62.1379 105.315C61.4358 105.304 61.1952 105.471 61.0243 106.171C60.8885 106.283 60.7582 106.338 60.7051 106.433C60.5016 106.797 60.3347 107.18 60.1275 107.543C60.0663 107.649 59.9174 107.709 59.8086 107.79C59.7398 107.677 59.6231 107.568 59.6116 107.449C59.5808 107.132 59.6053 106.81 59.5876 106.491C59.5773 106.307 59.5277 106.124 59.4819 105.86C59.2735 106.034 59.1669 106.13 59.0524 106.217C58.7651 106.434 58.4825 106.845 58.0863 106.546C57.7102 106.263 58.0272 105.865 58.1284 105.53C58.1976 105.302 58.3328 105.092 58.4385 104.873C58.4057 104.844 58.373 104.815 58.3402 104.786C58.0804 104.896 57.8273 105.027 57.5582 105.109C57.4028 105.156 57.1404 105.19 57.0713 105.111C56.9698 104.994 56.9319 104.75 56.9847 104.598C57.0992 104.269 57.2917 103.967 57.4453 103.65C57.5124 103.512 57.5624 103.366 57.6725 103.094C57.4073 103.249 57.292 103.35 57.1579 103.388C56.9532 103.447 56.7354 103.464 56.5231 103.498C56.53 103.271 56.4614 103.008 56.5573 102.825C56.9063 102.159 57.3053 101.518 57.695 100.874C58.0212 100.334 58.4668 100.02 59.1586 100.15C59.4624 100.207 59.6251 100.064 59.6043 99.7457C59.5929 99.5707 59.6115 99.394 59.6068 99.2183C59.5983 98.8979 59.7863 98.7512 60.0844 98.7167C60.247 98.698 60.4137 98.7122 60.5862 98.7452C60.9366 99.4209 61.2794 100.063 61.637 100.733C61.7772 100.636 61.8468 100.596 61.9061 100.545C63.6309 99.0663 65.3587 97.5908 67.0755 96.1033C67.4754 95.7568 67.8373 95.3689 68.2418 94.98C68.6023 94.7925 68.9588 94.6556 69.2695 94.4528C70.731 93.499 72.1929 92.5449 73.6306 91.558C75.9818 89.944 78.3143 88.3045 80.6548 86.6758C81.1783 87.8515 81.7018 89.0271 82.2469 90.2287ZM68.4519 96.0945C68.2026 96.2496 67.9255 96.3747 67.7088 96.5646C66.4765 97.6447 65.2773 98.7607 64.0307 99.8246C62.8644 100.82 61.5559 101.463 59.9783 100.779C58.6688 100.212 57.7545 101.172 57.2735 102.328C57.2675 102.343 57.3096 102.376 57.3649 102.445C57.7733 102.294 58.1979 102.138 58.6225 101.982C58.6416 102.014 58.6606 102.046 58.6797 102.078C58.3604 102.648 58.0412 103.217 57.7219 103.786C57.7702 103.822 57.8184 103.858 57.8667 103.894C58.0082 103.806 58.1743 103.741 58.286 103.626C58.5337 103.371 58.7711 103.103 58.9824 102.819C59.4686 102.166 60.0585 101.882 60.894 102.175C61.6831 102.452 62.4492 102.339 63.1674 101.922C64.7208 101.018 66.278 100.121 67.8263 99.2095C70.1914 97.8171 72.5504 96.4149 74.9118 95.0167C75.6889 94.5566 76.4655 94.096 77.2424 93.6357C77.2228 93.5943 77.2033 93.553 77.1838 93.5116C74.1885 94.0129 71.2266 94.6237 68.4519 96.0945Z" fill="#E4916D"/>
<path d="M47.7225 54.7352C48.4406 55.3284 49.2721 55.2889 50.1039 55.0902C51.0974 54.8528 51.9649 54.3746 52.6703 53.6435C53.6489 52.6292 53.5649 51.3357 52.4675 50.4721C54.0529 50.4815 55.2807 52.3532 54.9423 54.3383C54.4542 55.9998 53.3487 57.0596 51.8265 57.6847C48.7813 58.9352 45.669 58.99 42.5795 57.8733C40.5725 57.1479 39.1358 55.8165 38.6541 53.7077C38.3396 52.3305 38.4745 50.9775 39.062 49.649C39.0916 49.5678 39.0981 49.5087 39.1229 49.4544C39.131 49.4584 39.1207 49.4575 39.0847 49.4625C39.0229 49.5044 38.9868 49.5405 38.9199 49.5901C36.1001 51.5672 33.1442 52.4647 29.8091 50.9406C28.4885 50.1919 27.4054 49.227 26.7322 47.8626C25.2479 44.8545 27.1351 41.0087 30.4156 40.3929C31.1526 40.2545 31.8599 40.3413 32.4952 40.7649C33.0407 41.1287 33.3047 41.6268 33.2548 42.36C32.6198 41.4621 31.7912 41.2725 30.8822 41.6911C30.0439 42.0771 29.5025 42.722 29.5654 43.7627C29.0836 44.6568 29.2319 45.5171 29.6046 46.297C30.2945 47.7407 31.6238 48.3269 33.1757 48.4899C34.5149 48.6307 35.798 48.3511 37.029 47.8589C37.7007 47.5904 38.3457 47.2588 39.0739 46.9229C38.7618 46.6412 38.5484 46.4697 38.3602 46.2752C37.5238 45.4111 36.6974 44.5358 35.3529 44.4684C35.8656 44.0972 36.3784 43.726 36.948 43.3368C37.0654 43.3691 37.1421 43.4091 37.1842 43.4711C38.3217 45.1444 39.9468 46.0379 41.9768 46.247C42.3335 46.2837 42.4757 46.414 42.5971 46.7162C43.1956 48.2066 44.2656 48.7235 45.8466 48.3152C46.1055 49.1813 46.3644 50.0474 46.6279 50.9773C46.6385 51.0565 46.6443 51.0719 46.6502 51.0873C46.6494 51.1292 46.6485 51.1711 46.6437 51.2884C46.6716 51.8994 46.6711 52.4393 46.7438 52.9697C46.8394 53.6675 47.0399 54.333 47.7225 54.7352ZM43.5459 56.1592C45.0915 56.9583 46.7054 57.3671 48.4836 57.151C49.6862 57.0049 50.763 56.6396 51.6525 55.8466C51.9903 55.5454 52.3652 55.2227 52.4707 54.6094C52.2237 54.7558 52.0851 54.8334 51.9513 54.9181C50.8039 55.6444 49.6355 56.205 48.1729 56.0035C46.7899 55.813 45.921 55.0559 45.3959 53.902C44.892 52.7946 44.8906 51.6096 45.0949 50.4236C45.1509 50.0988 45.171 49.7681 45.2052 49.4609C45.1357 49.4195 45.1081 49.3889 45.0803 49.3886C43.9332 49.3784 42.8143 49.2635 41.7994 48.6681C41.7099 48.6157 41.4564 48.6853 41.3812 48.777C41.1474 49.0619 40.9126 49.3643 40.7679 49.6966C40.2137 50.9691 40.4812 52.21 41.0438 53.4024C41.5774 54.5334 42.4805 55.3756 43.5459 56.1592Z" fill="#692C29"/>
<path d="M32.5788 73.7472C32.0543 73.5906 31.5234 73.4511 31.0069 73.2723C30.5032 73.0979 30.0142 72.8833 29.4645 72.6532C29.0923 72.4541 28.7743 72.2882 28.4564 72.1223C28.1393 71.8836 27.8223 71.6448 27.4699 71.4007C27.0725 70.7814 26.6188 70.2004 26.3684 69.5462C25.9027 68.3293 26.3386 67.216 27.4094 66.5527C27.4585 66.5223 27.5185 66.5083 27.6768 66.4459C27.0937 67.1767 27.292 67.7591 27.7931 68.3277C27.564 68.1553 27.3637 67.9503 27.148 67.7619C27.0477 67.6742 26.9176 67.6186 26.8009 67.5485C26.7396 67.6554 26.654 67.7556 26.6208 67.8701C26.3604 68.7696 26.7651 69.5581 27.2081 70.264C28.1268 71.7279 29.5862 72.568 31.2596 72.9325C32.7854 73.2649 34.3442 73.181 35.7945 72.4896C36.5112 72.148 37.1984 71.7525 37.8264 71.0749C37.5532 71.0749 37.3985 71.0787 37.2441 71.0738C37.0988 71.0693 36.9537 71.0556 36.7563 71.0425C37.4138 70.2529 37.5486 70.0275 37.5153 69.4173C37.4884 68.9226 37.6956 68.6309 38.1423 68.4505C38.242 68.4102 38.328 68.3379 38.4467 68.2639C37.3844 67.7602 36.9375 66.9985 37.2245 65.891C37.2402 65.8306 37.2303 65.7637 37.2309 65.6998C37.2373 65.0178 36.7252 64.5987 36.0155 64.6743C35.2692 64.7538 34.6325 65.0522 34.0511 65.4981C33.9056 65.6097 33.7139 65.6647 33.5529 65.715C34.0487 65.0084 34.7199 64.5663 35.5316 64.263C35.4636 64.111 35.4062 63.9827 35.3488 63.8543C35.4081 63.6785 35.4124 63.4202 35.5369 63.3422C35.9222 63.1005 35.892 62.7712 35.8892 62.3924C37.0172 62.8647 38.1096 63.3631 39.1977 63.8946C39.0904 64.0882 38.9979 64.2561 38.8828 64.4079C38.3119 65.1609 38.0382 65.9986 38.0301 67.0402C39.3285 66.3902 40.3455 66.4072 40.7667 67.9498C41.3333 67.6864 41.858 67.4284 42.3946 67.1962C43.3693 66.7744 44.3598 66.3862 45.3267 65.9486C45.9536 65.6649 46.1641 65.2091 46.0018 64.6728C45.8469 64.1611 45.342 63.7658 44.7384 63.771C44.3342 63.7745 43.931 63.8809 43.5502 63.9152C44.6197 63.1654 45.6937 63.2729 46.3332 64.3135C46.7171 64.9382 47.1395 64.9949 47.7435 64.8431C47.902 64.8032 48.0694 64.7984 48.2312 64.7695C51.6467 64.1597 54.5843 62.6194 57.1755 60.4206C57.9034 59.8029 58.5895 59.1389 59.2948 58.4961C59.9354 59.8831 59.9413 61.276 59.2787 62.7404C59.5102 62.7625 59.6951 62.7697 59.876 62.7995C60.2948 62.8686 60.7271 62.9041 61.1257 63.0345C61.71 63.2257 61.8031 63.489 61.5859 64.0998C61.3763 64.3633 61.1737 64.5934 60.9235 64.8623C60.2194 65.2862 59.5631 65.6714 58.9068 66.0567C57.5626 66.4895 56.2187 66.9234 54.8734 67.3532C54.7661 67.3874 54.6493 67.3935 54.477 67.4306C54.3869 67.4573 54.367 67.4762 54.3574 67.5053C54.3574 67.5053 54.3565 67.5035 54.3156 67.4958C52.5688 67.684 50.8628 67.88 49.1613 68.0754C49.4915 69.4896 49.4362 69.9153 48.7623 71.0768C48.6749 71.2274 48.6004 71.3851 48.5199 71.5395C48.2492 71.9891 47.9785 72.4387 47.7098 72.9233C47.7116 72.9583 47.7075 72.9578 47.6821 72.9741C47.6409 73.0466 47.6251 73.103 47.5785 73.1828C47.4986 73.4557 47.4331 73.7033 47.4032 73.955C47.2684 75.0917 47.986 75.9845 49.1729 76.0259C49.7636 76.0465 50.3621 75.8558 50.9885 75.7557C50.6496 76.2006 50.269 76.7003 49.8883 77.2C48.954 78.0107 47.9062 78.6086 46.6544 78.8269C45.0044 79.1145 43.5303 78.7022 42.1374 77.7363C39.9173 76.0101 39.5063 73.7467 39.8903 71.2209C39.811 71.248 39.7764 71.2525 39.7517 71.27C39.7122 71.298 39.676 71.332 39.6439 71.368C38.2359 72.9495 36.4333 73.714 34.3004 73.7751C33.7274 73.7915 33.1527 73.7579 32.5788 73.7472ZM58.316 62.7033C58.316 62.7033 58.3155 62.7031 58.33 62.6316C58.4665 62.0435 58.6281 61.4593 58.7245 60.8651C58.7539 60.6836 58.6039 60.4747 58.536 60.2784C58.349 60.3495 58.1224 60.3772 57.981 60.4983C56.0335 62.1664 53.8121 63.398 51.4273 64.361C50.6397 64.679 49.8086 64.8942 49.0102 65.189C48.4546 65.3941 48.3722 65.8898 48.8011 66.286C49.1497 66.6081 49.5822 66.7393 50.035 66.6002C50.9896 66.3069 51.9317 65.9746 52.8751 65.648C53.238 65.5223 53.5905 65.3686 53.9478 65.2277C53.9786 65.2861 54.0094 65.3445 54.0402 65.4029C53.0268 65.9491 52.0135 66.4952 51.0041 67.0391C52.8253 67.5483 59.6097 65.1951 60.6101 63.6833C59.8464 63.189 59.1638 63.5902 58.4144 63.9596C58.5734 63.3786 58.7006 62.9141 58.8601 62.3313C58.598 62.5109 58.4572 62.6074 58.316 62.7033ZM41.3777 69.6353C41.4826 69.7763 41.5601 69.9524 41.6968 70.0525C42.528 70.6616 42.7164 71.4499 42.4719 72.3963C42.2843 73.1226 42.1397 73.8593 41.9559 74.6809C41.7926 74.3726 41.6652 74.1321 41.5214 73.8606C41.2814 75.2297 42.7912 77.2381 44.3084 77.7756C46.4473 78.5334 48.951 77.6243 49.8364 76.5856C49.7132 76.5602 49.6071 76.5332 49.4992 76.517C48.7456 76.4037 48.0851 76.1215 47.5464 75.5769C47.0793 75.1047 46.8201 74.5356 46.7837 73.9061C46.7371 73.0998 47.1463 72.4229 47.6539 71.8242C48.4832 70.8463 48.7935 69.7678 48.5049 68.5214C48.2625 67.4746 47.4876 66.6927 46.4017 66.5694C44.6959 66.3756 43.175 66.7846 41.9205 67.9855C41.4545 68.4315 41.1623 68.9085 41.3777 69.6353Z" fill="#AF2505"/>
<path d="M80.6765 86.6521C78.3144 88.3059 75.9818 89.9454 73.6306 91.5594C72.1929 92.5463 70.7311 93.5004 69.2696 94.4541C68.9588 94.6569 68.6023 94.7939 68.1981 94.9897C66.9488 95.1609 66.4586 94.746 66.5549 93.6207C66.6036 93.0518 66.4423 92.5824 66.0729 92.1638C65.5036 91.5187 65.069 90.8468 65.5505 89.9681C68.0358 89.5284 69.7465 87.9952 71.1747 86.1251C72.2393 84.7311 73.1809 83.2493 74.2162 81.8334C74.5844 81.3299 75.0674 80.9053 75.5151 80.4196C75.9206 80.274 76.3016 80.1166 76.699 80.0394C78.285 79.7314 79.333 80.5758 79.3652 82.1408C79.3759 82.6638 79.3828 83.1988 79.4987 83.7052C79.6789 84.4928 80.1125 84.7563 80.9314 84.8127C81.2115 84.832 81.6823 84.9702 81.7104 85.1177C81.7629 85.3932 81.6149 85.7543 81.439 86.007C81.2629 86.26 80.9507 86.4241 80.6765 86.6521ZM76.8256 82.8766C77.1505 82.1768 77.4754 81.4771 77.8002 80.7773C77.7641 80.7481 77.7279 80.719 77.6917 80.6898C77.3694 80.8405 77.0325 80.9678 76.7272 81.1459C75.3404 81.955 74.4415 83.2069 73.6242 84.5029C72.5176 86.2574 71.5437 88.0918 69.952 89.5181C69.755 89.6947 69.7137 90.1379 69.7652 90.4303C69.7926 90.5861 70.1733 90.6835 70.4928 90.8621C70.041 91.3946 69.5454 91.9788 69.0498 92.563C69.3176 92.5688 69.5303 92.5044 69.7197 92.4002C71.0793 91.6517 72.4646 90.9414 73.7834 90.1299C75.657 88.977 77.3189 87.5751 78.655 85.8385C78.761 85.7006 78.8218 85.5301 78.9036 85.3748C78.8677 85.347 78.8318 85.3192 78.7959 85.2914C77.0842 86.0354 75.6483 87.1733 74.2468 88.3815C74.2343 88.2647 74.241 88.1669 74.2917 88.1007C74.8198 87.4097 75.3505 86.7205 75.8894 86.0374C76.4471 85.3304 77.0681 84.6638 77.5611 83.9173C77.9542 83.3219 78.1285 82.6227 77.9365 81.7724C77.527 82.3039 77.1886 82.7433 76.8502 83.1827C76.822 83.1701 76.7938 83.1574 76.7656 83.1448C76.7764 83.0747 76.7871 83.0045 76.8256 82.8766Z" fill="#F7E7D7"/>
<path d="M19.2093 89.767C18.7831 90.9046 18.3569 92.0422 17.9132 93.2229C17.8826 93.2796 17.8793 93.2951 17.8859 93.3126C17.8772 93.3568 17.8684 93.401 17.8318 93.5045C17.6757 93.9338 17.5476 94.3037 17.3897 94.6583C17.289 94.6027 17.214 94.5678 17.1477 94.5213C16.7105 94.2149 16.2206 94.0193 15.7252 94.2971C15.1926 94.5957 15.3894 95.0748 15.513 95.537C15.6833 96.1738 15.5398 96.4696 14.9662 96.5234C14.1887 96.5964 14.0072 97.0925 14.2648 97.8552C14.4025 98.263 14.5357 98.675 14.6259 99.0943C14.7394 99.622 14.4636 100.218 14.0451 100.451C13.0738 99.3905 12.0438 98.3744 11.1447 97.2591C9.69198 95.4571 9.58897 93.4573 10.4738 91.3774C10.5806 91.1264 10.6858 90.8747 10.8005 90.5899C11.7938 88.9952 12.7785 87.4338 13.8122 85.8535C15.6439 87.1453 17.4266 88.4561 19.2093 89.767ZM12.7824 97.854L12.8016 97.8541C12.8016 97.8541 12.7775 97.8383 12.7741 97.7635C12.6429 97.0294 12.4559 96.2993 12.3981 95.5598C12.3504 94.9499 12.6057 94.3578 13.1396 94.0138C13.9655 93.4818 14.0487 92.7742 13.9118 91.9207C13.7899 91.1611 13.7569 90.3965 14.3329 89.7376C14.5566 89.4817 14.817 89.18 14.4954 88.8027C14.127 88.3707 13.6746 88.1825 13.2417 88.4182C12.8981 88.6053 12.5384 88.8762 12.3518 89.1999C11.9369 89.9199 11.575 90.6783 11.2838 91.4536C10.7627 92.8412 10.7149 94.2734 11.1779 95.6823C11.4633 96.5508 11.9048 97.3569 12.7824 97.854Z" fill="#E4916D"/>
<path d="M39.0389 49.6716C38.4746 50.9781 38.3396 52.3311 38.6541 53.7083C39.1358 55.8171 40.5725 57.1485 42.5795 57.8739C45.6691 58.9905 48.7814 58.9357 51.8265 57.6852C53.3487 57.0601 54.4542 56.0004 54.9449 54.3787C55.2422 54.0442 55.5219 53.7408 55.8712 53.3618C56.0517 54.1457 55.7485 54.7477 55.4765 55.3183C54.7279 56.8887 53.4146 57.9021 51.8112 58.5774C49.3512 59.6134 46.7699 60.0925 44.0978 59.9012C41.269 59.6987 38.9793 58.5315 37.5486 56.0536C36.7712 54.707 36.545 53.2628 36.836 51.7005C36.8447 51.6569 36.8459 51.6421 36.8459 51.6421L36.8337 51.6648C36.1854 51.9661 35.5423 52.2785 34.8877 52.5663C33.6755 53.0991 32.3923 53.0851 31.1111 52.9493C30.6937 52.9051 30.5857 53.0098 30.5879 53.3873C30.5967 54.9565 31.1384 56.3056 32.248 57.4595C32.5632 57.7873 32.7588 58.2234 33.0156 58.6682C32.672 58.9522 32.3221 59.1777 31.9721 59.4033C31.5832 58.8725 31.1608 58.3617 30.8114 57.8075C29.4772 55.6909 29.041 53.4384 29.804 50.9823C33.1442 52.4653 36.1001 51.5678 38.941 49.6152C39.0083 49.6414 39.0236 49.6565 39.0389 49.6716Z" fill="#E4916D"/>
<path d="M59.3085 58.4657C58.5895 59.14 57.9033 59.804 57.1754 60.4217C54.5842 62.6206 51.6466 64.1608 48.2312 64.7707C48.0694 64.7996 47.9019 64.8044 47.7435 64.8442C47.1395 64.9961 46.717 64.9394 46.3331 64.3147C45.6936 63.274 44.6197 63.1666 43.516 63.9247C43.0773 64.159 42.8232 63.9946 42.5725 63.7075C41.9372 62.9798 41.3083 62.8141 40.4362 63.1792C40.004 63.3602 39.6121 63.632 39.202 63.8626C38.1096 63.3642 37.0171 62.8658 35.895 62.356C34.881 61.6555 33.8966 60.9664 32.9201 60.2314C33.5793 59.8726 34.0224 59.3673 34.3409 58.747C34.3672 58.8056 34.4263 58.8712 34.4148 58.9216C34.2593 59.6023 34.779 59.8041 35.2408 60.0856C36.7854 61.0272 38.4209 61.7686 40.1823 62.2305C42.3928 62.8102 44.6331 63.0228 46.9273 62.8236C50.1995 62.5395 53.136 61.4156 55.7881 59.5884C58.227 57.9082 60.1678 55.7756 61.574 53.2058C61.9428 52.5319 62.2515 51.8271 62.5943 51.123C62.8165 51.5982 63.0354 52.0666 63.2602 52.5667C62.6917 53.5945 62.1723 54.6257 61.5277 55.5772C60.8554 56.5695 60.0624 57.4851 59.3085 58.4657Z" fill="#E5906C"/>
<path d="M53.6372 28.7256C57.7303 28.6552 61.4019 29.8636 64.8001 31.9077C65.9297 32.5871 66.9651 33.4146 68.0345 34.1861C68.2023 34.3071 68.3222 34.4904 68.4918 34.6643C68.8547 35.2396 69.2573 35.8278 69.0063 36.4755C68.7337 37.1789 68.6803 37.8384 68.7583 38.5851C68.8443 39.4091 68.2186 40.0311 67.2421 40.3117C67.2276 39.9935 67.2758 39.7124 67.2866 39.43C67.3114 38.7807 67.1238 38.1978 66.6606 37.7126C66.6302 37.6388 66.5998 37.565 66.5361 37.4527C66.4866 37.387 66.4632 37.3684 66.4326 37.3583C66.4326 37.3583 66.4325 37.3624 66.4293 37.3291C66.1213 37.0368 65.8577 36.6927 65.5052 36.5331C63.628 35.6831 61.7543 34.816 59.8296 34.0768C57.7995 33.297 55.6814 32.8011 53.4674 32.9509C52.5349 33.014 51.6015 33.1469 50.8635 33.8028C50.5245 34.0875 50.186 34.3727 49.8464 34.6566C49.6883 34.7888 49.5281 34.9185 49.3382 35.0635C48.5625 34.2833 48.7949 32.8408 49.7883 32.221C50.1563 31.9913 50.5633 31.8205 50.9459 31.6262C50.5742 30.1314 51.1195 29.2693 52.6728 28.8818C52.9736 28.8068 53.2869 28.7786 53.6372 28.7256ZM49.6819 33.135C49.7935 33.1075 49.9109 33.0936 50.0157 33.0507C51.9584 32.2531 53.9624 32.1243 56.0103 32.5506C57.9079 32.9456 59.817 33.3035 61.6893 33.7918C62.6811 34.0505 63.6687 34.4509 64.5468 34.9659C66.1499 35.9062 67.4528 37.159 68.0969 38.9582C68.1591 38.7522 68.2248 38.5442 68.1866 38.3559C67.9605 37.2389 67.4439 36.2902 66.4758 35.5932C64.968 34.5076 63.3115 33.6972 61.5532 33.0846C59.7031 32.44 57.8073 31.992 55.832 31.8653C54.3979 31.7733 52.965 31.6802 51.5567 31.9961C50.8013 32.1655 50.0015 32.351 49.5683 33.1381C49.5562 33.1551 49.5441 33.1721 49.532 33.1891C49.5566 33.1724 49.5811 33.1558 49.6819 33.135ZM63.2001 32.672C65.2655 33.5355 67.0196 34.8044 68.4524 36.5079C68.4882 36.3651 68.4922 36.2557 68.4729 36.1503C68.3163 35.2942 67.8223 34.6132 67.2008 34.0321C65.4666 32.4106 63.4208 31.2865 61.1529 30.5108C59.4926 29.9429 57.7834 29.6079 56.0381 29.5141C55.0442 29.4607 54.0367 29.5868 53.0407 29.6839C52.8552 29.702 52.5517 29.9729 52.5582 30.1162C52.5673 30.3181 52.7897 30.5367 52.9699 30.6961C53.0778 30.7916 53.2768 30.809 53.4387 30.8253C54.4517 30.927 55.4651 31.0256 56.4796 31.112C58.7742 31.3074 61.0036 31.7649 63.2001 32.672Z" fill="#D2D3D4"/>
<path d="M45.8669 48.2901C44.2656 48.7241 43.1956 48.2072 42.5971 46.7168C42.4758 46.4146 42.3335 46.2844 41.9768 46.2476C39.9469 46.0385 38.3218 45.145 37.1842 43.4717C37.1421 43.4097 37.0654 43.3697 36.9717 43.3135C36.8224 42.8636 36.698 42.4216 36.5914 41.9754C36.076 39.8184 38.0064 38.4141 39.911 38.5591C41.5067 38.6806 42.4622 39.5823 43.3561 40.726C43.7638 41.5215 44.0622 42.3472 44.5417 43.0581C45.1097 43.9 46.0481 44.0103 47.014 43.8472C48.2081 43.6456 48.9805 42.8606 49.6504 41.9719C50.0073 41.4985 50.2885 40.9713 50.6614 40.5078C50.434 43.1479 48.9809 44.9428 46.4771 46.0185C46.9119 46.9463 46.7233 47.6925 45.8669 48.2901ZM41.7738 40.3507C40.9409 38.9363 38.5237 39.3049 37.8735 40.5556C37.7041 40.8813 37.6863 41.4089 37.8374 41.7421C38.6056 43.4358 39.993 44.3934 41.8772 44.6527C42.4856 44.7364 42.9758 44.9295 43.2691 45.4986C43.4067 45.7657 43.6148 46.0047 43.8208 46.231C44.0343 46.4656 44.332 46.5879 44.6163 46.3878C45.2984 45.9075 45.9553 45.3936 46.6389 44.881C46.5653 44.838 46.527 44.802 46.4826 44.7924C46.3869 44.7717 46.2879 44.7658 46.1906 44.7517C44.9903 44.5777 43.9761 44.0684 43.1824 43.1697C43.0346 43.0023 42.9085 42.8169 42.7909 42.5626C43.0616 41.5681 42.6949 40.7781 41.7738 40.3507Z" fill="#F5614B"/>
<path d="M19.2327 89.7435C17.4266 88.4569 15.6439 87.1461 13.8307 85.8237C13.4917 85.5279 13.1341 85.2773 12.8931 84.9468C12.7475 84.7472 12.687 84.3893 12.771 84.1678C12.8266 84.0211 13.2041 83.9257 13.4411 83.9183C14.4283 83.8874 14.8809 83.5613 15.0651 82.6114C15.1435 82.2073 15.143 81.7873 15.1599 81.3738C15.2328 79.594 16.5084 78.7457 18.263 79.3215C18.4955 79.3978 18.7162 79.5082 18.9778 79.611C20.3111 80.7547 21.094 82.2469 21.933 83.688C22.0696 83.9226 21.7926 84.3836 21.7068 84.7399C21.6351 84.7453 21.5634 84.7506 21.4917 84.756C21.3362 84.5279 21.1607 84.3101 21.0286 84.0699C20.3182 82.778 19.4825 81.5787 18.2749 80.6735C17.8386 80.3464 17.3388 80.099 16.8681 79.8153C16.8363 79.8446 16.8045 79.874 16.7727 79.9033C17.0911 80.7044 17.4095 81.5055 17.727 82.3454C17.7261 82.3841 17.7245 82.3862 17.7245 82.3862C17.3657 81.9396 17.0068 81.4929 16.6014 80.9884C16.4113 81.8662 16.5873 82.645 17.0572 83.2989C17.8075 84.3429 18.6658 85.3133 19.4587 86.3293C19.7463 86.6977 19.9773 87.1077 20.1655 87.5555C18.7314 86.4249 17.4139 85.1694 15.697 84.4773C15.6509 84.5194 15.6048 84.5616 15.5587 84.6038C15.7796 84.9241 15.9554 85.2873 16.2292 85.557C17.2423 86.5552 18.2791 87.5315 19.3283 88.4941C19.5369 88.6854 19.6514 88.8371 19.5256 89.103C19.4296 89.3057 19.3455 89.5137 19.2327 89.7435Z" fill="#F7E7D7"/>
<path d="M33.5434 65.7462C33.7139 65.6652 33.9056 65.6101 34.0511 65.4985C34.6324 65.0527 35.2692 64.7543 36.0155 64.6748C36.7252 64.5992 37.2372 65.0183 37.2309 65.7003C37.2303 65.7642 37.2401 65.8311 37.2245 65.8915C36.9375 66.999 37.3844 67.7607 38.4467 68.2643C38.328 68.3384 38.242 68.4106 38.1422 68.451C37.6956 68.6314 37.4883 68.9231 37.5153 69.4177C37.5486 70.028 37.4138 70.2534 36.7562 71.043C36.9537 71.0561 37.0987 71.0698 37.2441 71.0743C37.3985 71.0792 37.5532 71.0754 37.8264 71.0754C37.1984 71.753 36.5111 72.1485 35.7944 72.4901C34.3442 73.1815 32.7854 73.2654 31.2595 72.933C29.5861 72.5684 28.1267 71.7284 27.2081 70.2645C26.7651 69.5586 26.3604 68.7701 26.6208 67.8706C26.654 67.7561 26.7396 67.6558 26.8009 67.549C26.9175 67.6191 27.0477 67.6747 27.148 67.7623C27.3636 67.9508 27.5639 68.1558 27.8056 68.3594C27.8573 68.3707 27.8739 68.3766 27.9208 68.4225C28.0166 68.5307 28.0705 68.6169 28.1492 68.6643C28.9113 69.123 29.731 69.1781 30.6047 69.053C31.6399 68.9048 32.6015 67.8796 32.7745 66.9276C32.7745 66.9281 32.7738 66.9286 32.8051 66.9182C32.8789 66.8162 32.9215 66.7246 32.9702 66.6077C33.0075 66.5666 33.0387 66.5509 33.1018 66.5244C33.1779 66.3937 33.2222 66.2738 33.2677 66.1565C33.2689 66.1592 33.263 66.1585 33.2981 66.1522C33.4044 66.0142 33.4756 65.8826 33.5461 65.7498C33.5453 65.7486 33.5434 65.7462 33.5434 65.7462ZM27.9655 70.3055C28.0448 70.4564 28.084 70.6597 28.2096 70.75C29.4159 71.618 30.7354 72.0626 32.2723 71.8347C33.9989 71.5788 35.3745 70.4739 35.7085 68.8387C35.8501 68.1452 35.7057 67.3883 35.631 66.6661C35.6028 66.3937 35.4635 65.9818 35.2693 65.9127C35.005 65.8188 34.5991 65.9205 34.3252 66.0652C33.5556 66.4717 33.2502 67.2441 32.8948 67.9632C31.9259 69.9236 29.8965 70.6309 28.0798 69.4422C27.7532 69.2286 27.4947 68.9171 27.2048 68.6508C27.1776 68.851 27.2133 69.0191 27.2981 69.1592C27.529 69.541 27.7807 69.911 28.0224 70.2875C28.0224 70.2875 28.0209 70.2894 27.9655 70.3055Z" fill="#D33102"/>
<path d="M35.3239 44.4854C36.6975 44.5374 37.5238 45.4127 38.3603 46.2769C38.5485 46.4713 38.7618 46.6428 39.0739 46.9245C38.3457 47.2605 37.7008 47.592 37.029 47.8605C35.798 48.3527 34.5149 48.6323 33.1757 48.4916C31.6238 48.3285 30.2945 47.7423 29.6046 46.2986C29.2319 45.5187 29.0836 44.6584 29.5653 43.8066C30.4613 45.2859 32.0067 46.0622 33.4698 45.5901C34.1297 45.3773 34.6896 44.8729 35.3239 44.4854Z" fill="#7B3C35"/>
<path d="M66.6365 37.7383C67.1238 38.1966 67.3114 38.7796 67.2865 39.4288C67.2758 39.7112 67.2275 39.9923 67.2049 40.3181C66.7525 42.2167 66.2914 44.0711 65.8303 45.9639C64.2819 46.4096 63.4548 47.6392 62.5139 48.7386C62.1671 49.1438 61.8421 49.5686 61.4705 49.9509C61.2903 50.1364 61.0255 50.2445 60.7485 50.3298C61.4317 49.1434 61.4356 47.8827 61.477 46.6182C61.506 45.7301 61.5852 44.8386 61.7225 43.9604C61.8111 43.3936 62.1712 42.9288 62.7025 42.6402C63.6226 42.1406 64.1952 41.368 64.6178 40.4586C65.0947 39.4323 65.6708 38.4701 66.6365 37.7383ZM65.6426 40.8869C65.6426 40.6919 65.6426 40.4969 65.6426 40.3019C65.0473 41.7074 64.0646 42.7378 62.7986 43.5522C61.9426 44.103 61.7154 45.1514 62.2177 46.0398C62.5099 46.5565 63.0066 46.6837 63.5486 46.3998C64.3016 46.0052 64.7103 45.3311 65.0688 44.6287C65.6579 43.4748 65.6817 42.228 65.6426 40.8869Z" fill="#6A2D29"/>
<path d="M33.0699 66.5347C33.0387 66.5505 33.0076 66.5662 32.9438 66.6223C32.8653 66.7513 32.8196 66.8397 32.7738 66.9281C32.7738 66.9281 32.7745 66.9276 32.7483 66.9471C32.141 67.903 31.4547 68.7068 30.1666 68.8775C30.1666 68.6706 30.1666 68.508 30.1666 68.3454C30.2098 67.5837 30.1673 66.806 30.3138 66.0634C30.6279 64.471 31.7989 63.5714 33.4708 63.5962C34.0721 63.6051 34.6711 63.7648 35.31 63.855C35.4062 63.9827 35.4636 64.1111 35.5316 64.263C34.7199 64.5663 34.0486 65.0084 33.5529 65.715C33.5435 65.7458 33.5453 65.7481 33.517 65.7638C33.4135 65.9057 33.3383 66.0319 33.263 66.1581C33.263 66.1581 33.2689 66.1587 33.239 66.1725C33.1627 66.3024 33.1163 66.4186 33.0699 66.5347Z" fill="#D2D3D4"/>
<path d="M34.3458 58.7095C34.0224 59.3669 33.5794 59.8721 32.9006 60.2062C31.4533 60.7315 29.9922 60.9209 28.498 60.6744C27.0398 60.4339 26.0602 59.5371 25.9068 58.3306C25.8232 57.6732 26.021 57.0828 26.607 56.6893C27.1234 56.3426 27.6736 56.3142 28.2851 56.6708C28.198 56.7179 28.1547 56.747 28.1072 56.7662C27.2027 57.1321 26.967 58.0432 27.6374 58.7435C28.6234 59.7733 29.8777 59.9393 31.2306 59.6829C31.4694 59.6376 31.6948 59.5261 31.9493 59.4243C32.3221 59.1779 32.672 58.9524 33.0314 58.697C33.6861 58.1734 33.9694 57.4711 34.2207 56.6799C34.7161 57.3599 34.5337 58.0161 34.3458 58.7095Z" fill="#6A2D29"/>
<path d="M48.7694 35.6304C49.7095 36.1778 50.6215 36.7097 51.508 37.279C51.7268 37.4195 51.9247 37.6568 52.0237 37.8924C52.2075 38.3298 51.8729 38.7662 51.4121 38.6542C50.0318 38.3189 48.6976 37.8695 47.7516 36.6896C47.7193 36.5468 47.7095 36.4217 47.7131 36.297C47.7306 35.6938 48.0196 35.5053 48.7694 35.6304Z" fill="#6A2D29"/>
<path d="M30.1885 68.3621C30.1666 68.5087 30.1666 68.6712 30.1666 68.8782C31.4547 68.7075 32.141 67.9036 32.7483 66.9473C32.6015 67.8798 31.64 68.905 30.6048 69.0532C29.7311 69.1783 28.9113 69.1232 28.1492 68.6645C28.0705 68.6171 28.0166 68.5309 27.9443 68.4348C28.4604 68.5769 28.9764 68.7733 29.5088 68.9087C29.9327 69.0166 30.2208 68.8586 30.1885 68.3621Z" fill="#AF2505"/>
<path d="M63.1397 3.48438C62.9972 3.66637 62.8218 3.85388 62.6133 4.04764C62.7558 3.86588 62.9313 3.67789 63.1397 3.48438Z" fill="#B1B0CF"/>
<path d="M46.8073 5.50586C46.6879 5.65067 46.5353 5.8001 46.3474 5.95023C46.4661 5.80411 46.6202 5.65729 46.8073 5.50586Z" fill="#B1B0CF"/>
<path d="M59.5826 5.46765C59.4696 5.42606 59.3443 5.35584 59.2086 5.25586C59.3222 5.29707 59.4462 5.36805 59.5826 5.46765Z" fill="#B1B0CF"/>
<path d="M63.8371 2.91602C63.8117 2.96549 63.7563 3.01887 63.6694 3.07582C63.6944 3.02623 63.7507 2.97307 63.8371 2.91602Z" fill="#B1B0CF"/>
<path d="M63.4276 3.26562C63.4151 3.29817 63.3726 3.33431 63.3015 3.37664C63.3145 3.34496 63.3561 3.30709 63.4276 3.26562Z" fill="#B1B0CF"/>
<path d="M77.7809 3.17039C77.7445 3.17476 77.698 3.15364 77.6345 3.11347C77.6686 3.11125 77.7196 3.12807 77.7809 3.17039Z" fill="#B1B0CF"/>
<path d="M77.6112 3.08024C77.5936 3.09164 77.5769 3.0831 77.5534 3.06072C77.5665 3.05528 77.5883 3.05976 77.6112 3.08024Z" fill="#B1B0CF"/>
<path d="M58.7768 4.91507C58.7767 4.92754 58.7482 4.92599 58.7343 4.92297C58.7204 4.91995 58.7436 4.89258 58.7436 4.89258C58.7436 4.89258 58.7769 4.90259 58.7768 4.91507Z" fill="#B1B0CF"/>
<path d="M47.7044 4.88086C47.7184 4.88401 47.6833 4.90979 47.6737 4.91508C47.6596 4.89909 47.6684 4.88487 47.7044 4.88086Z" fill="#B1B0CF"/>
<path d="M63.5321 3.17188C63.5363 3.18763 63.5158 3.21619 63.4721 3.25902C63.4684 3.24376 63.4879 3.21422 63.5321 3.17188Z" fill="#B1B0CF"/>
<path d="M63.2487 3.39062C63.2572 3.41051 63.2368 3.43296 63.1928 3.46457C63.1902 3.45029 63.207 3.42344 63.2487 3.39062Z" fill="#B1B0CF"/>
<path d="M78.8894 144.328C80.5613 144.442 82.2333 144.555 83.9052 144.669C84.9222 144.738 85.9401 144.797 86.9558 144.881C88.7081 145.026 90.4596 145.182 92.2104 145.342C93.1921 145.432 94.172 145.541 95.1525 145.643C95.1973 145.648 95.24 145.671 95.2896 145.764C93.4027 146.014 91.5167 146.271 89.6285 146.512C87.6558 146.764 85.6823 147.011 83.7066 147.239C82.3191 147.399 80.9275 147.526 79.5373 147.663C77.9836 147.816 76.4297 147.966 74.8752 148.11C73.9915 148.192 73.1067 148.264 72.2217 148.333C70.5997 148.46 68.9775 148.586 67.3548 148.703C66.3052 148.78 65.2553 148.858 64.2042 148.906C61.7878 149.015 59.3708 149.113 56.9534 149.201C54.8806 149.276 52.8073 149.356 50.7335 149.386C46.9917 149.439 43.2492 149.486 39.5071 149.476C37.0707 149.469 34.6339 149.374 32.1985 149.286C30.3743 149.219 28.5505 149.122 26.7294 148.999C24.8603 148.872 22.9942 148.703 21.1279 148.541C19.3103 148.383 17.4927 148.223 15.6776 148.04C14.5818 147.93 13.4888 147.789 12.3979 147.638C10.672 147.4 8.94458 147.168 7.2257 146.888C5.16419 146.552 3.11089 146.168 1.05456 145.803C0.980939 145.79 0.912973 145.747 0.852844 145.644C2.45631 145.516 4.05981 145.389 5.66322 145.261C7.61275 145.106 9.56204 144.947 11.5118 144.795C12.0527 144.752 12.5946 144.721 13.1366 144.695C15.2564 144.593 17.3764 144.496 19.5333 144.428C19.245 144.828 18.9197 145.198 18.5061 145.668C18.8081 145.696 18.9626 145.723 19.117 145.723C23.1744 145.724 27.2318 145.722 31.2892 145.721C31.7675 145.72 32.2463 145.71 32.724 145.727C33.0421 145.738 33.1668 145.622 33.1624 145.309C33.1555 144.815 33.1836 144.319 33.241 143.823C33.9086 143.79 34.5318 143.748 35.1557 143.731C36.603 143.691 38.0506 143.658 39.4982 143.633C41.6544 143.596 43.8108 143.539 45.9669 143.543C49.4911 143.549 53.0153 143.594 56.5394 143.63C58.9574 143.654 61.3753 143.691 63.8164 143.745C64.1119 144.26 64.3996 144.746 64.6511 145.248C64.8219 145.589 65.0454 145.731 65.4563 145.73C69.9376 145.716 74.419 145.723 78.9004 145.722C79.0741 145.722 79.2478 145.703 79.5441 145.687C79.2983 145.177 79.0939 144.752 78.8894 144.328Z" fill="#8C4817"/>
<path d="M33.1969 143.825C33.1836 144.321 33.1555 144.816 33.1625 145.311C33.1668 145.624 33.0421 145.739 32.724 145.728C32.2463 145.712 31.7676 145.722 31.2893 145.722C27.2319 145.723 23.1745 145.725 19.117 145.725C18.9626 145.724 18.8081 145.698 18.5062 145.67C18.9197 145.2 19.2451 144.83 19.5784 144.43C20.2633 143.921 20.9021 143.378 21.6241 142.976C24.0648 141.615 26.6355 141.578 29.263 142.399C29.5108 142.477 29.7545 142.567 30.0946 142.684C29.8747 141.533 29.6692 140.459 29.4452 139.352C29.1451 137.779 28.8726 136.235 28.5801 134.696C27.4486 128.74 26.3105 122.786 25.1765 116.831C25.1527 116.706 25.149 116.577 25.1804 116.41C29.2067 117.442 33.2704 117.909 37.3899 117.956C36.0487 120.41 35.2758 123.021 34.8433 125.71C34.3414 128.83 33.9597 131.97 33.5921 135.109C33.4291 136.501 33.4288 137.912 33.337 139.35C33.2785 140.866 33.2377 142.345 33.1969 143.825ZM28.7151 131.97C29.3145 135.613 29.914 139.256 30.5134 142.899C30.5918 142.783 30.5978 142.673 30.5909 142.564C30.4959 141.053 30.3679 139.544 30.3099 138.032C30.2163 135.592 30.1543 133.151 30.1052 130.71C30.0544 128.187 30.0289 125.663 30.0085 123.14C30.0057 122.796 29.8674 122.606 29.5541 122.489C29.0168 122.286 28.4844 122.072 27.9499 121.863C27.6836 121.758 27.4175 121.654 26.9975 121.489C27.5843 125.05 28.1477 128.468 28.7151 131.97ZM27.455 143.441C27.6717 143.441 27.8884 143.441 28.2245 143.441C26.6705 142.292 23.2271 142.346 22.0838 143.441C23.8417 143.441 25.6019 143.441 27.455 143.441Z" fill="#0F2837"/>
<path d="M78.8636 144.307C79.0939 144.753 79.2984 145.178 79.5441 145.688C79.2479 145.704 79.0742 145.723 78.9004 145.723C74.419 145.724 69.9377 145.717 65.4563 145.731C65.0454 145.732 64.8219 145.59 64.6511 145.249C64.3996 144.746 64.1119 144.261 63.8085 143.711C62.9178 142.141 62.0582 140.628 61.1915 139.081C59.4365 136.226 57.7343 133.376 55.9292 130.589C53.604 126.998 51.1099 123.517 48.1768 120.359C47.2526 119.364 46.2268 118.458 45.2832 117.495C47.846 117.047 50.3774 116.636 52.8983 116.171C54.1384 115.942 55.3591 115.615 56.5886 115.332C57.4507 117.761 58.3095 120.192 59.1755 122.62C61.1444 128.14 63.1168 133.658 65.1136 139.203C65.4432 140.107 65.7494 140.984 66.0493 141.863C66.1553 142.173 66.2943 142.232 66.6301 142.081C67.6724 141.61 68.703 141.067 69.8006 140.768C73.4743 139.764 76.2989 140.79 78.502 143.811C78.6162 143.968 78.7259 144.127 78.8636 144.307ZM62.9213 134.803C62.5564 133.896 62.1831 132.992 61.8283 132.082C61.0433 130.067 60.274 128.046 59.4859 126.033C58.9376 124.632 58.3543 123.244 57.8135 121.84C57.3877 120.736 57.019 119.61 56.5952 118.504C56.1691 117.393 56.1334 117.405 54.9666 117.888C54.1057 118.244 53.2252 118.556 52.3476 118.872C52.0481 118.98 52.083 119.147 52.1923 119.36C52.6474 120.245 53.0833 121.14 53.5579 122.015C55.0277 124.726 56.4845 127.445 58.0002 130.131C59.0329 131.962 60.1404 133.753 61.2438 135.545C62.0284 136.82 62.8535 138.071 63.6765 139.322C64.2742 140.231 64.898 141.124 65.5102 142.024C65.5585 141.84 65.5299 141.677 65.4721 141.524C64.6325 139.306 63.789 137.09 62.9213 134.803ZM70.0748 141.62C69.8269 141.707 69.5806 141.798 69.3307 141.879C68.9715 141.996 68.9601 142.205 69.2387 142.385C69.6869 142.676 70.1411 142.993 70.6415 143.168C72.5232 143.824 74.5047 143.902 76.4761 144.014C76.7431 144.029 77.0118 144.016 77.3648 144.016C76.6526 143.529 76.0109 143.138 75.4257 142.68C73.8507 141.445 72.0615 141.273 70.0748 141.62Z" fill="#102837"/>
<path d="M56.6247 115.314C55.359 115.616 54.1384 115.943 52.8983 116.172C50.3774 116.636 47.8459 117.047 45.2393 117.495C42.5716 117.648 39.9835 117.787 37.3954 117.925C33.2704 117.909 29.2067 117.442 25.1863 116.369C23.7113 115.874 22.275 115.382 20.8163 114.865C21.1862 111.451 21.478 108.047 21.9987 104.676C22.5174 101.319 23.2598 97.993 23.9178 94.6558C24.0661 93.9035 24.2692 93.1613 24.4511 92.4154C24.488 92.2641 24.5435 92.1171 24.6538 91.9588C25.1409 94.4002 25.9597 96.7053 27.3762 98.8062C27.3219 96.9702 27.2676 95.1342 27.2133 93.2982C27.2383 93.2931 27.2633 93.2879 27.2884 93.2828C27.678 94.117 28.0302 94.9702 28.466 95.7812C29.135 97.026 29.873 98.2359 30.554 99.475C30.6903 99.7229 30.8021 100.052 30.7556 100.315C30.3499 102.612 29.9019 104.901 29.4736 107.194C29.0747 109.33 28.6907 111.468 28.2849 113.602C28.2119 113.986 28.3961 114.063 28.7129 114.035C30.3826 113.89 32.0652 113.823 33.7175 113.57C35.4525 113.304 37.1761 112.923 38.873 112.479C41.6553 111.75 44.3 110.646 46.7432 109.176C48.4997 108.119 50.155 106.89 51.7772 105.643C52.8027 104.854 53.683 103.888 54.6319 103.005C54.7368 102.907 54.864 102.832 55.0149 102.742C55.0489 102.737 55.0497 102.737 55.0497 102.737C54.347 104.674 53.3585 106.473 52.24 108.209C52.1531 108.344 52.0741 108.484 51.9639 108.673C51.9173 108.777 51.8984 108.828 51.8597 108.892C51.815 108.923 51.7945 108.945 51.7699 108.976C51.7617 108.981 51.7638 109.007 51.7638 109.007C51.7638 109.007 51.7871 108.98 51.8058 108.967C51.8476 108.932 51.8667 108.909 51.9026 108.863C51.9437 108.794 51.9641 108.744 51.9845 108.693C52.3053 108.382 52.6599 108.098 52.9414 107.757C55.3137 104.881 56.6109 101.576 57.0351 97.9376C57.1938 96.5763 57.3863 95.2095 57.4002 93.8436C57.4199 91.9045 56.9682 90.0126 56.5372 88.1239C55.9931 85.7398 55.4381 83.3556 55.0002 80.9521C54.7276 79.456 54.6627 77.9242 54.4908 76.2754C55.1334 77.3989 55.6436 78.4169 56.2719 79.3609C57.3153 80.9286 58.4347 82.4487 59.5216 83.9892C59.5862 84.0807 59.6459 84.1755 59.7252 84.3407C59.8323 85.8805 59.922 87.3483 60.0051 88.8605C60.1918 92.1743 60.3851 95.4437 60.5785 98.713C60.4136 98.7137 60.247 98.6994 60.0844 98.7182C59.7863 98.7526 59.5983 98.8993 59.6068 99.2197C59.6115 99.3954 59.5929 99.5721 59.6043 99.7472C59.625 100.065 59.4624 100.209 59.1586 100.151C58.4668 100.021 58.0212 100.335 57.695 100.875C57.3053 101.52 56.9062 102.161 56.5573 102.826C56.4614 103.009 56.53 103.273 56.5231 103.5C56.7354 103.465 56.9531 103.449 57.1579 103.39C57.292 103.351 57.4073 103.251 57.6725 103.095C57.5624 103.367 57.5124 103.513 57.4453 103.651C57.2916 103.968 57.0992 104.271 56.9847 104.6C56.9319 104.751 56.9698 104.996 57.0713 105.112C57.1404 105.191 57.4028 105.157 57.5582 105.11C57.8273 105.029 58.0804 104.898 58.3402 104.787C58.373 104.816 58.4057 104.846 58.4385 104.875C58.3328 105.093 58.1976 105.303 58.1284 105.532C58.0272 105.866 57.7102 106.264 58.0863 106.548C58.4825 106.847 58.7651 106.435 59.0524 106.218C59.1669 106.132 59.2735 106.035 59.4819 105.862C59.5277 106.125 59.5773 106.308 59.5876 106.493C59.6053 106.811 59.5807 107.133 59.6115 107.451C59.6231 107.569 59.7398 107.678 59.8086 107.792C59.9173 107.71 60.0663 107.651 60.1275 107.544C60.3347 107.182 60.5016 106.798 60.7051 106.434C60.7582 106.339 60.8885 106.285 61.0163 106.21C61.2173 108.618 61.379 111.027 61.5606 113.435C61.5855 113.765 61.4462 113.888 61.1558 113.972C59.6557 114.407 58.1588 114.853 56.6247 115.314ZM24.3675 103.771C24.2934 103.388 24.2107 102.989 23.7238 102.923C23.2249 102.856 22.9378 103.201 22.8162 103.579C22.6691 104.037 22.5736 104.541 22.611 105.013C22.6323 105.281 22.9101 105.639 23.1685 105.755C23.5396 105.921 23.8993 105.637 24.0266 105.299C24.2018 104.834 24.2637 104.328 24.3675 103.771ZM28.0092 104.017C27.5082 104.6 27.3767 105.279 27.5668 105.988C27.6307 106.227 27.8841 106.531 28.1065 106.583C28.322 106.634 28.6878 106.465 28.8498 106.279C29.3348 105.723 29.4467 105.045 29.2454 104.347C29.0614 103.708 28.6435 103.588 28.0092 104.017Z" fill="#B0B0D1"/>
<path d="M17.4194 94.6744C17.5476 94.3045 17.6757 93.9346 17.8308 93.5391C18.0073 93.7115 18.2352 93.8903 18.2927 94.1109C18.554 95.113 18.8089 96.1204 18.9757 97.1399C19.0361 97.509 18.862 97.9211 18.764 98.3063C18.5283 99.2319 18.2922 100.158 18.0232 101.075C17.7029 102.167 18.2491 103.096 18.5734 104.068C18.6935 104.428 18.8584 104.773 19.0028 105.126C19.0636 105.134 19.1243 105.143 19.185 105.151C20.3372 101.804 21.4894 98.457 22.6415 95.1099C22.6564 95.1118 22.6713 95.1136 22.6861 95.1154C22.5436 95.8914 22.3815 96.6646 22.262 97.444C21.8605 100.062 21.4201 102.676 21.0976 105.303C20.7946 107.77 20.6177 110.253 20.3953 112.729C20.3411 113.333 20.326 113.939 20.2908 114.588C18.2934 113.836 16.4588 112.781 14.8362 111.398C14.6849 111.268 14.5443 111.017 14.5583 110.833C14.6922 109.083 14.8605 107.335 15.0765 105.552C15.5989 105.546 15.6981 105.284 15.6451 104.908C15.6184 104.719 15.5462 104.53 15.5552 104.344C15.5619 104.204 15.6246 104.005 15.7317 103.941C16.404 103.539 16.4698 103.488 16.2077 102.826C15.8614 101.951 16.0394 101.237 16.7577 100.636C17.0818 100.365 17.1815 100.043 17.057 99.6491C16.9945 99.4516 16.9244 99.255 16.8819 99.0532C16.7454 98.4051 16.8445 98.0321 17.4337 97.8642C17.8096 97.7571 17.9927 97.4484 18.0154 97.055C18.0645 96.2014 17.8547 95.4122 17.4194 94.6744Z" fill="#B1B0D0"/>
<path d="M17.3897 94.6587C17.8547 95.4118 18.0645 96.2011 18.0154 97.0546C17.9928 97.448 17.8097 97.7567 17.4337 97.8638C16.8445 98.0317 16.7455 98.4047 16.882 99.0529C16.9245 99.2546 16.9946 99.4512 17.057 99.6487C17.1816 100.043 17.0818 100.365 16.7578 100.636C16.0394 101.236 15.8615 101.951 16.2077 102.826C16.4699 103.488 16.4041 103.539 15.7318 103.94C15.6247 104.004 15.562 104.204 15.5552 104.344C15.5463 104.53 15.6185 104.719 15.6451 104.907C15.6981 105.283 15.599 105.546 15.0934 105.517C14.5917 104.981 14.0964 104.468 13.6805 103.901C13.3345 103.428 13.3557 102.902 13.7632 102.442C14.0539 102.114 14.1327 101.78 13.8924 101.396C13.6931 101.077 13.7739 100.786 14.0246 100.484C14.4637 100.218 14.7394 99.6224 14.6259 99.0947C14.5358 98.6754 14.4026 98.2634 14.2649 97.8556C14.0072 97.0929 14.1888 96.5968 14.9663 96.5238C15.5398 96.47 15.6834 96.1742 15.5131 95.5374C15.3894 95.0752 15.1927 94.5961 15.7253 94.2975C16.2206 94.0197 16.7105 94.2153 17.1477 94.5217C17.2141 94.5681 17.289 94.6031 17.3897 94.6587Z" fill="#FDAF82"/>
<path d="M49.922 77.2052C50.2689 76.7019 50.6495 76.2022 50.9885 75.7573C50.3621 75.8574 49.7635 76.0481 49.1728 76.0275C47.9859 75.9861 47.2684 75.0933 47.4032 73.9565C47.433 73.7049 47.4986 73.4573 47.6011 73.1653C47.6722 73.0683 47.6898 73.0139 47.7074 72.9594C47.7074 72.9594 47.7116 72.9599 47.7091 72.9594C47.8104 72.924 47.9535 72.9199 48.0118 72.8497C48.8238 71.8707 49.9849 71.434 51.1235 70.9779C52.164 70.5611 53.2287 70.201 54.2494 69.8281C53.8852 70.4702 53.45 71.1229 53.1306 71.8252C52.5482 73.1058 52.2694 74.462 52.1696 75.8629C52.0101 78.1033 52.3403 80.3181 52.4616 82.5442C52.5726 84.5817 52.3997 86.5933 51.8224 88.5701C51.0894 91.0804 49.8467 93.3419 48.252 95.4155C46.5136 97.6758 44.4633 99.6617 42.2478 101.487C41.0227 102.496 39.8012 103.509 38.6142 104.623C38.8092 104.552 39.0184 104.507 39.1969 104.408C40.9568 103.439 42.762 102.535 44.4543 101.464C46.2711 100.315 48.057 99.0935 49.7159 97.7414C51.5279 96.2647 53.1788 94.6022 54.9004 93.0211C54.9592 92.967 55.0227 92.9176 55.116 92.8575C55.148 92.8489 55.149 92.8496 55.149 92.8496C54.8912 93.6027 54.6817 94.3754 54.3671 95.1056C53.2341 97.7347 51.6654 100.105 49.752 102.266C47.6754 104.611 45.2798 106.6 42.5732 108.222C40.3932 109.528 38.0813 110.589 35.5909 111.208C33.9538 111.615 32.2843 111.902 30.6248 112.221C30.0629 112.329 29.9597 112.18 30.0351 111.625C30.2949 109.712 30.511 107.794 30.7972 105.885C31.0835 103.976 31.3776 102.064 31.7701 100.173C32.2932 97.653 32.8655 95.1402 33.5058 92.6458C34.346 89.373 35.3667 86.1514 36.7354 83.0419C37.3495 81.6467 37.931 80.238 38.5345 78.8384C38.6582 78.5514 38.814 78.2775 38.997 77.9141C39.2825 78.3099 39.5091 78.614 39.7248 78.9251C40.7276 80.3718 41.9477 81.5817 43.6764 82.1882C45.24 82.7367 46.6639 82.4342 48.01 81.4974C49.0792 80.7534 49.6142 79.7604 49.8147 78.5401C49.8687 78.211 50.0122 77.8962 50.0765 77.5679C50.0978 77.4595 49.9994 77.3291 49.922 77.2052Z" fill="#F8E8D8"/>
<path d="M30.3024 78.1432C30.6891 77.1665 31.1854 76.2372 32.0659 75.6127C32.4049 75.3722 32.9379 75.2919 33.379 75.3012C34.968 75.3343 36.4057 74.9438 37.7017 74.0535C37.7615 74.0125 37.8463 74.0057 37.9338 73.9785C37.8599 74.5099 37.7274 75.0103 37.7367 75.5081C37.7491 76.1722 37.8829 76.8335 37.9403 77.4979C37.9584 77.7069 37.9656 77.9605 37.8639 78.129C36.2815 80.7485 35.0909 83.5246 34.2687 86.4517C34.244 86.5395 34.2047 86.6235 34.1722 86.7093C34.1202 86.7267 34.0681 86.7441 34.0161 86.7614C33.6219 85.9284 33.2277 85.0953 32.8335 84.2622C32.8114 84.2654 32.7893 84.2686 32.7672 84.2718C32.9026 85.7772 33.0381 87.2826 33.1735 88.7879C33.1272 88.8087 33.0809 88.8295 33.0346 88.8503C32.7028 88.448 32.3264 88.0726 32.047 87.6386C30.9952 86.005 30.1441 84.2822 29.8087 82.3637C29.7688 82.1357 29.8867 81.8652 29.984 81.6352C30.1312 81.2874 30.3245 80.9579 30.5041 80.5498C30.5959 80.2732 30.7212 80.0741 30.7607 79.8601C30.8776 79.2268 30.9973 78.5784 30.3024 78.1432ZM34.0126 81.0513C34.0488 81.8055 34.6988 82.0343 35.3419 81.4806C35.8314 81.059 36.1153 80.5086 36.1045 79.8801C36.1 79.618 35.933 79.2383 35.7227 79.1339C35.5167 79.0316 35.1019 79.1306 34.8839 79.2828C34.3075 79.6853 34.0414 80.2847 34.0126 81.0513Z" fill="#F7E8D9"/>
<path d="M67.7415 79.1922C65.4424 77.7667 63.1691 76.3644 60.8223 74.9167C62.1986 73.738 63.162 72.2233 63.8413 70.4414C64.0476 70.6287 64.1915 70.7501 64.3248 70.8817C66.1612 72.6939 67.9983 74.5055 69.8307 76.3215C70.9828 77.4632 72.1273 78.6123 73.2756 79.7576C73.7343 80.2151 73.7328 80.3158 73.2827 80.7802C72.3392 81.7536 71.6207 82.8757 70.9899 84.0554C70.9629 84.1059 70.9237 84.1502 70.8419 84.2653C70.6266 82.9053 70.0787 81.753 69.2731 80.7343C68.8351 80.1805 68.2732 79.7188 67.7415 79.1922Z" fill="#F7E8D9"/>
<path d="M29.3868 76.995C28.2236 79.1817 27.0269 81.3144 25.9515 83.5031C24.3867 86.6876 22.8709 89.8971 21.73 93.2559C21.5006 93.9313 21.3002 94.6159 21.0863 95.2963C21.0461 95.2915 21.0058 95.2867 20.9656 95.2819C20.9656 93.345 20.9656 91.4082 20.9656 89.4713C20.9484 89.4665 20.9311 89.4617 20.9139 89.457C20.6183 90.5692 20.3227 91.6815 20.0089 92.8623C19.7258 92.0121 19.7567 91.118 20.0724 89.8058C20.5191 87.9496 21.3763 86.2584 22.3387 84.6189C23.4618 82.7057 24.5801 80.7852 25.8147 78.9397C26.7334 77.5665 27.8014 76.2818 28.8755 75.0154C29.1599 74.6801 29.6992 74.526 30.1487 74.3568C30.3024 74.299 30.5606 74.4192 30.7251 74.5252C30.7705 74.5544 30.682 74.8426 30.6008 74.9823C30.2132 75.6492 29.807 76.3058 29.3868 76.995Z" fill="#F7E8D9"/>
<path d="M28.4383 72.1562C28.7743 72.2881 29.0923 72.454 29.4316 72.6489C28.7498 73.5993 28.0112 74.4975 27.3517 75.4474C26.3508 76.8891 25.394 78.3602 24.4398 79.8319C23.935 80.6105 23.4754 81.4166 22.9583 82.2716C22.6698 81.8632 22.4354 81.5048 22.1732 81.1666C21.8183 80.7087 21.4591 80.2516 21.069 79.8221C20.8094 79.5364 20.972 79.3736 21.1731 79.1828C22.727 77.7089 24.2854 76.2394 25.8292 74.7557C26.7058 73.9131 27.5575 73.0463 28.4383 72.1562Z" fill="#F7E8D9"/>
<path d="M58.9014 66.0895C59.5631 65.6713 60.2194 65.2861 60.9068 64.8906C61.3301 64.9184 61.732 64.9162 62.1126 65.0022C63.1132 65.228 63.6591 66.1346 63.2136 67.0232C62.4722 68.5022 61.3693 69.6753 59.656 70.121C58.5414 70.411 57.5348 69.4432 57.6943 68.3355C57.8029 67.5812 58.2335 67.0122 58.6757 66.4348C58.7531 66.3337 58.8228 66.2268 58.9014 66.0895Z" fill="#F8E8D8"/>
<path d="M32.6101 73.7659C33.1527 73.7577 33.7274 73.7914 34.3004 73.7749C36.4333 73.7138 38.2359 72.9494 39.6439 71.3679C39.676 71.3318 39.7122 71.2978 39.7517 71.2699C39.7764 71.2523 39.811 71.2478 39.8902 71.2207C39.5063 73.7465 39.9173 76.0099 42.1067 77.725C41.1406 77.5367 40.483 76.8896 39.9724 76.1168C39.3708 75.2064 39.0191 74.1965 39.0084 73.096C39.0073 72.989 38.9815 72.8822 38.9556 72.6895C37.0034 74.0644 34.9123 74.4537 32.6101 73.7659Z" fill="#B7AAC3"/>
<path d="M48.5549 71.5386C48.6004 71.3866 48.6749 71.2289 48.7623 71.0782C49.4362 69.9167 49.4915 69.491 49.1613 68.0769C50.8628 67.8814 52.5688 67.6855 54.3165 67.498C54.3935 67.8144 54.2258 67.9648 53.9437 68.0681C52.7961 68.4883 51.6147 68.7483 50.3864 68.7429C49.9443 68.7409 49.8027 68.8672 49.7841 69.3116C49.7464 70.2157 49.441 71.024 48.5549 71.5386Z" fill="#B7AAC3"/>
<path d="M25.1332 91.8219C25.0635 91.1512 25.2142 90.5752 25.6549 90.099C26.1285 89.5871 26.7335 89.7261 26.9142 90.392C27.0807 91.0055 26.9698 91.5966 26.6265 92.1359C26.421 92.4588 26.1559 92.7437 25.7148 92.6576C25.2877 92.5742 25.1962 92.2178 25.1332 91.8219Z" fill="#233A48"/>
<path d="M31.2002 92.1034C31.2599 92.0038 31.2972 91.9307 31.3511 91.8718C31.5858 91.6155 31.8785 91.312 32.222 91.5121C32.4739 91.6589 32.685 92.0043 32.7478 92.295C32.8685 92.8549 32.7124 93.4022 32.3681 93.8813C32.1613 94.169 31.8695 94.4621 31.5219 94.3009C31.2624 94.1806 30.9725 93.831 30.9575 93.5694C30.9303 93.0973 31.0987 92.6146 31.2002 92.1034Z" fill="#233A48"/>
<path d="M30.2625 78.1465C30.9973 78.5791 30.8776 79.2276 30.7607 79.8608C30.7212 80.0748 30.596 80.2739 30.5016 80.5129C30.1835 80.7775 29.9348 81.2071 29.4493 80.9511C28.9726 80.6998 28.9236 80.2234 29.0036 79.7822C29.0809 79.3554 29.2203 78.9126 29.4526 78.5491C29.5854 78.3413 29.9579 78.2776 30.2625 78.1465Z" fill="#233A48"/>
<path d="M17.8256 82.4785C17.8437 82.5027 17.8619 82.5268 17.8801 82.551C17.8625 82.5383 17.845 82.5256 17.8262 82.4961C17.825 82.4793 17.8256 82.4785 17.8256 82.4785Z" fill="#F7E7D7"/>
<path d="M22.7174 94.7825C22.7099 94.7765 22.7367 94.7559 22.7367 94.7559C22.7367 94.7559 22.7249 94.7885 22.7174 94.7825Z" fill="#B1B0D0"/>
<path d="M55.0485 102.736C55.0582 102.706 55.0683 102.677 55.0785 102.648C55.0788 102.671 55.0791 102.693 55.0647 102.726C55.0499 102.737 55.049 102.736 55.0485 102.736Z" fill="#B0B0D1"/>
<path d="M54.3793 67.5044C54.3668 67.4767 54.3871 67.4576 54.4399 67.4453C54.4513 67.4709 54.4313 67.4912 54.3793 67.5044Z" fill="#B7AAC3"/>
<path d="M17.8925 93.3042C17.8787 93.2962 17.8823 93.2804 17.9095 93.2604C17.9219 93.2542 17.8989 93.2945 17.8925 93.3042Z" fill="#B1B0D0"/>
<path d="M55.1476 92.8494C55.1473 92.8489 55.1676 92.8242 55.1676 92.8242C55.1676 92.8242 55.1664 92.8435 55.1578 92.8471C55.1492 92.8506 55.148 92.8499 55.1476 92.8494Z" fill="#F8E8D8"/>
<path d="M17.8266 82.4801C17.7981 82.4652 17.7736 82.4459 17.7385 82.4041C17.7245 82.3857 17.7261 82.3836 17.7272 82.3828C17.7559 82.398 17.7799 82.4178 17.8139 82.4604C17.8276 82.479 17.8271 82.4798 17.8266 82.4801Z" fill="#F7E7D7"/>
<path d="M53.4689 49.5151C53.1431 48.3221 53.6805 47.6677 54.902 47.6224C56.2456 47.5726 57.2998 48.0963 58.1359 49.06C58.5688 49.5589 58.758 50.1807 58.4713 50.8002C58.2034 51.379 57.643 51.5608 57.0011 51.5761C55.3839 51.6148 54.2505 50.8869 53.4689 49.5151Z" fill="#FC9372"/>
<path d="M50.9057 33.8024C51.6015 33.1464 52.5349 33.0136 53.4674 32.9505C55.6814 32.8007 57.7994 33.2966 59.8296 34.0763C61.7543 34.8156 63.6279 35.6827 65.5051 36.5327C65.8576 36.6923 66.1213 37.0364 66.4313 37.3281C65.0888 36.8514 63.744 36.3343 62.3926 35.834C59.9568 34.9321 57.4531 34.2509 54.8669 33.9383C53.5749 33.7821 52.2552 33.8409 50.9057 33.8024Z" fill="#E4916D"/>
<path d="M63.6594 50.2211C64.1076 48.9326 65.9265 47.9512 67.1922 48.3148C68.4271 48.6696 68.9113 49.8528 68.2038 50.8905C67.7376 51.5742 67.0582 51.9916 66.1912 52.0469C65.3264 52.1021 64.7398 51.422 65.0159 50.6193C65.1629 50.1916 65.4759 49.8176 65.7347 49.3861C65.7556 49.3528 65.7559 49.3345 65.7559 49.3345L65.74 49.3579C65.2264 49.5559 64.7103 49.7482 64.2006 49.9551C64.0362 50.0218 63.8884 50.1268 63.6975 50.2187C63.6619 50.2232 63.6594 50.2211 63.6594 50.2211Z" fill="#E4916D"/>
<path d="M56.4599 39.4422C56.9321 38.7967 57.6526 38.7281 58.3225 38.6406C59.583 38.4759 60.8201 38.6387 62.0047 39.1088C62.1107 39.1509 62.2386 39.1893 62.3035 39.2695C62.4171 39.4101 62.5758 39.5934 62.5552 39.7373C62.5345 39.8816 62.3366 40.0826 62.1842 40.1145C61.6068 40.2354 61.0179 40.3553 60.4306 40.3695C59.3797 40.3949 58.3247 40.3757 57.2754 40.3123C56.6362 40.2737 56.4314 40.0082 56.4599 39.4422Z" fill="#6A2D29"/>
<path d="M57.891 43.4553C57.9557 43.5712 58.0448 43.6602 58.0373 43.7407C58.0142 43.9894 58.0371 44.3241 57.8854 44.4567C57.732 44.5907 57.3307 44.628 57.1434 44.5259C56.3496 44.0933 55.5096 43.8752 54.6135 43.7761C54.2076 43.7313 53.6353 43.7148 53.6074 43.1944C53.5817 42.7128 54.1253 42.6417 54.5078 42.5264C55.9295 42.0981 57.0637 42.407 57.891 43.4553Z" fill="#7B3C35"/>
<path d="M49.2538 39.2891C49.8242 39.5382 49.9584 39.7891 49.8254 40.3166C49.6418 41.045 49.2045 41.5831 48.4955 41.8868C47.7659 42.1994 47.2835 41.8752 47.3119 41.1129C47.3494 40.107 48.2004 39.2889 49.2538 39.2891Z" fill="#7B3C35"/>
<path d="M47.7231 54.6971C47.0399 54.3337 46.8394 53.6682 46.7438 52.9704C46.6711 52.44 46.6716 51.9002 46.6479 51.3203C46.7765 51.4762 46.948 51.6628 47.008 51.8786C47.2646 52.8005 47.4882 53.731 47.7231 54.6971Z" fill="#E4916D"/>
<path d="M46.6605 51.0766C46.6451 51.0726 46.6388 51.057 46.6353 51.0167C46.6667 51.01 46.6771 51.0344 46.6605 51.0766Z" fill="#E4916D"/>
<path d="M63.6661 50.2263C63.6673 50.2277 63.6452 50.254 63.6452 50.254C63.6452 50.254 63.6447 50.2314 63.6533 50.2271C63.6619 50.2229 63.6649 50.225 63.6661 50.2263Z" fill="#E4916D"/>
<path d="M66.4454 37.3747C66.4636 37.3671 66.4877 37.3859 66.5126 37.4343C66.4982 37.4361 66.4775 37.415 66.4454 37.3747Z" fill="#E4916D"/>
<path d="M71.2451 27.5041C70.7412 25.9012 70.7745 24.3212 71.0919 22.7308C71.1894 22.2424 71.4269 22.037 71.9814 21.9772C74.2907 21.7282 76.3178 20.8138 78.0506 19.3166C79.0662 18.439 79.9115 17.4233 80.4992 16.2183C80.5511 16.1118 80.7468 15.9967 80.8652 16.0064C82.9575 16.1778 84.7719 16.9675 86.2994 18.365C88.4383 20.3218 89.3941 22.7569 89.1845 25.5704C88.9984 28.07 87.8776 30.1515 85.8523 31.7614C84.0804 33.1699 82.0529 33.856 79.7819 33.7944C77.5484 33.7338 75.5645 32.9719 73.8927 31.5207C72.6406 30.4338 71.7544 29.1049 71.2451 27.5041ZM86.0875 18.7315C85.5812 18.3058 85.1177 17.8155 84.5596 17.4678C83.3832 16.735 82.3507 16.5664 81.2611 17.7285C80.6339 18.3973 79.9175 18.9881 79.2324 19.6048C79.0493 19.7696 78.8336 19.9003 78.7197 19.9833C79.1487 20.5015 79.605 20.9267 79.9027 21.4387C80.5154 22.4921 80.4168 23.6404 80.2537 24.7979C80.0899 25.9596 79.8462 27.1094 79.9818 28.309C80.2006 30.2464 82.2426 31.8692 84.2266 31.6182C85.6356 31.44 86.5509 30.5873 87.2456 29.5099C88.3729 27.7614 88.7806 25.8346 88.5193 23.7779C88.276 21.8624 87.4702 20.2046 86.0875 18.7315Z" fill="#CFD4D8"/>
<path d="M62.277 28.3913C63.3208 26.5067 64.3538 24.6531 65.3931 22.8028C65.5627 22.5008 65.8153 22.3468 66.2005 22.3793C66.6051 22.4133 67.0151 22.3869 67.4979 22.3869C67.1906 23.5962 67.357 24.8047 66.5034 25.8351C65.6725 26.838 65.0089 27.9731 64.2946 29.0641C64.1192 29.3319 63.9771 29.4224 63.6694 29.257C63.2814 29.0485 62.8633 28.8929 62.4696 28.6934C62.3788 28.6474 62.3342 28.5157 62.277 28.3913Z" fill="#CFD4D8"/>
<path d="M62.7386 23.8819C62.0576 25.1418 61.3792 26.3631 60.7372 27.6021C60.5472 27.9691 60.3423 28.0859 59.9261 27.9722C59.4893 27.853 59.0297 27.8127 58.4851 27.7221C58.7411 27.1248 58.9212 26.5631 59.2092 26.0595C60.0533 24.5832 60.9434 23.1317 61.8079 21.6663C61.9706 21.3905 62.1489 21.3401 62.4466 21.4865C62.8247 21.6726 63.2278 21.811 63.6981 22.0015C63.3742 22.6365 63.0647 23.2433 62.7386 23.8819Z" fill="#CFD4D8"/>
<path d="M65.713 30.5688C64.7519 29.8893 64.7478 29.886 65.4764 29.0063C66.0016 28.3722 66.5375 27.7463 67.0749 27.1218C67.1521 27.032 67.2642 26.9703 67.4067 26.8594C67.6371 27.4685 67.7552 28.0732 68.0741 28.5522C68.5004 29.1929 68.2665 29.6264 67.8573 30.1128C67.4961 30.5422 67.1752 31.0035 66.8142 31.4803C66.4328 31.1649 66.0862 30.8782 65.713 30.5688Z" fill="#CFD4D8"/>
<path d="M56.7915 25.2221C56.8975 24.9833 57.0365 24.7858 57.0728 24.572C57.2387 23.5956 57.983 23.4491 58.8905 23.3887C58.818 23.5388 58.7787 23.6644 58.7048 23.7666C57.9694 24.7842 57.4102 25.8884 57.1412 27.1006C57.0187 27.6527 56.7354 27.8505 56.2093 27.8562C56.0495 27.8579 55.8899 27.8791 55.6248 27.8996C56.0277 26.9753 56.4025 26.1156 56.7915 25.2221Z" fill="#CFD4D8"/>
<path d="M69.7139 30.98C69.7357 31.0983 69.7764 31.247 69.7312 31.278C69.0944 31.7146 68.4459 32.1352 67.7103 32.6188C67.7997 32.4146 67.8375 32.2557 67.9283 32.134C68.227 31.7335 68.5468 31.3478 68.8551 30.9539C69.254 30.4439 69.3024 30.4429 69.7139 30.98Z" fill="#CFD4D8"/>
<path d="M71.3817 11.2457C72.122 10.4761 73.0771 10.1835 74.1204 10.1C74.4319 10.075 74.7499 10.1146 75.0591 10.0784C75.4749 10.0297 75.8262 9.84998 75.9251 9.41233C76.0261 8.96495 75.7177 8.73266 75.3703 8.55078C74.555 8.12385 73.7273 8.1906 72.8899 8.50104C71.7416 8.92673 70.8699 9.74845 69.8988 10.43C69.4072 10.775 68.911 11.1297 68.3709 11.3907C67.1176 11.9965 65.8975 11.7915 64.7547 11.0857C63.5233 10.3252 62.5743 9.31793 62.166 7.93078C61.8631 6.90134 62.1308 5.91948 62.7199 5.05143C63.9476 3.24252 65.6568 2.07869 67.8336 1.53439C70.1793 0.947821 72.4753 1.12471 74.7315 1.88693C76.934 2.63096 78.5945 3.99233 79.5176 6.1092C79.8764 6.93191 80.0204 7.78745 79.8189 8.68556C79.6227 9.56075 79.0359 10.1086 78.2633 10.4943C77.1565 11.0467 75.9497 11.1358 74.745 11.0268C73.7462 10.9364 72.7766 10.9606 71.8108 11.2144C71.7012 11.2432 71.5824 11.2393 71.4258 11.2491C71.3837 11.2476 71.3817 11.2457 71.3817 11.2457Z" fill="#F8E8D8"/>
<path d="M71.3861 11.2479C71.3616 11.2662 71.3363 11.2834 71.311 11.3006C71.3237 11.2835 71.3365 11.2664 71.3662 11.2471C71.3832 11.2449 71.3853 11.2468 71.3861 11.2479Z" fill="#F8E8D8"/>
<path d="M55.325 4.73445C56.3864 5.48276 56.7294 6.97432 56.223 8.21709C55.468 10.0697 53.8992 10.711 52.0447 10.9581C50.5346 11.1593 48.9765 11.1359 47.5645 11.8001C46.7322 12.1916 46.0859 12.7982 45.6342 13.5882C45.6033 13.6422 45.59 13.7078 45.5802 13.7697C45.5761 13.7954 45.6028 13.8258 45.6417 13.9122C46.5769 13.1326 47.5718 12.4925 48.8407 12.485C48.8736 12.5333 48.9066 12.5817 48.9395 12.6301C47.9114 13.3827 46.9311 14.2103 45.8408 14.8658C44.8613 15.4548 43.8686 14.7168 43.7633 13.4448C43.6473 12.0427 44.049 10.7587 44.6862 9.52642C45.8825 7.21259 47.7782 5.65391 50.2721 4.80103C51.1649 4.4957 52.1113 4.3047 53.0497 4.16757C53.8445 4.05142 54.6215 4.24451 55.325 4.73445Z" fill="#F8E8D8"/>
<path d="M68.484 96.0778C71.2266 94.6238 74.1885 94.013 77.1837 93.5117C77.2033 93.5531 77.2228 93.5944 77.2424 93.6357C76.4655 94.0961 75.6889 94.5567 74.9118 95.0167C72.5504 96.415 70.1914 97.8172 67.8263 99.2096C66.278 100.121 64.7208 101.018 63.1674 101.922C62.4492 102.34 61.6831 102.452 60.894 102.175C60.0585 101.882 59.4686 102.166 58.9823 102.819C58.7711 103.103 58.5337 103.371 58.286 103.626C58.1743 103.741 58.0082 103.806 57.8667 103.894C57.8184 103.858 57.7702 103.822 57.7219 103.786C58.0412 103.217 58.3604 102.648 58.6797 102.079C58.6606 102.046 58.6416 102.014 58.6225 101.982C58.1979 102.138 57.7733 102.295 57.3649 102.445C57.3096 102.376 57.2675 102.343 57.2735 102.328C57.7545 101.172 58.6688 100.212 59.9783 100.779C61.5559 101.463 62.8644 100.82 64.0307 99.8247C65.2773 98.7608 66.4765 97.6448 67.7088 96.5647C67.9255 96.3748 68.2026 96.2497 68.484 96.0778Z" fill="#FDAF82"/>
<path d="M43.5152 56.1407C42.4805 55.3759 41.5773 54.5338 41.0437 53.4027C40.4812 52.2103 40.2137 50.9694 40.7679 49.6969C40.9126 49.3646 41.1473 49.0623 41.3812 48.7773C41.4564 48.6856 41.7099 48.616 41.7994 48.6685C42.8143 49.2638 43.9332 49.3787 45.0803 49.3889C45.1081 49.3892 45.1357 49.4198 45.2052 49.4612C45.171 49.7684 45.1509 50.0991 45.0949 50.4239C44.8906 51.6099 44.892 52.7949 45.3959 53.9023C45.921 55.0563 46.7898 55.8133 48.1729 56.0038C49.6355 56.2053 50.8039 55.6447 51.9512 54.9184C52.085 54.8337 52.2237 54.7562 52.4707 54.6097C52.3652 55.223 51.9903 55.5457 51.6525 55.8469C50.763 56.6399 49.6861 57.0053 48.4836 57.1514C46.7054 57.3674 45.0915 56.9586 43.5152 56.1407Z" fill="#7B3C35"/>
<path d="M39.107 49.4512C39.1004 49.5103 39.0938 49.5695 39.0637 49.6507C39.0245 49.6576 39.0089 49.6425 38.9719 49.6029C38.9871 49.5422 39.0238 49.5061 39.0854 49.4623C39.1101 49.4547 39.107 49.4512 39.107 49.4512Z" fill="#E4916D"/>
<path d="M39.1092 49.4579C39.123 49.4624 39.135 49.4639 39.1255 49.4573C39.104 49.4492 39.1075 49.4549 39.1092 49.4579Z" fill="#E4916D"/>
<path d="M52.5235 54.4972C52.522 54.4934 52.5251 54.501 52.5235 54.4972V54.4972Z" fill="#7B3C35"/>
<path d="M58.3165 62.7047C58.4572 62.6082 58.598 62.5118 58.8601 62.3322C58.7006 62.915 58.5734 63.3795 58.4144 63.9605C59.1638 63.591 59.8464 63.1898 60.6101 63.6841C59.6097 65.196 52.8253 67.5492 51.0041 67.04C52.0135 66.496 53.0268 65.9499 54.0402 65.4038C54.0094 65.3454 53.9786 65.287 53.9478 65.2286C53.5905 65.3695 53.238 65.5232 52.8751 65.6488C51.9317 65.9754 50.9896 66.3077 50.035 66.6011C49.5822 66.7402 49.1497 66.609 48.8011 66.2869C48.3722 65.8907 48.4546 65.395 49.0102 65.1898C49.8086 64.895 50.6397 64.6798 51.4273 64.3618C53.8122 63.3988 56.0335 62.1672 57.981 60.4992C58.1224 60.378 58.349 60.3504 58.536 60.2793C58.6039 60.4756 58.7539 60.6844 58.7245 60.8659C58.6281 61.4601 58.4665 62.0444 58.2999 62.6823C58.2375 62.785 58.2052 62.8379 58.1728 62.8907C58.1968 62.9012 58.2207 62.9117 58.2446 62.9222C58.2686 62.8497 58.2926 62.7772 58.3165 62.7047ZM54.2423 65.1503L54.2678 65.1584C54.2678 65.1584 54.2517 65.1401 54.2423 65.1503Z" fill="#D33102"/>
<path d="M41.3655 69.5993C41.1623 68.9085 41.4546 68.4315 41.9205 67.9855C43.175 66.7846 44.6959 66.3756 46.4017 66.5694C47.4876 66.6927 48.2625 67.4746 48.5049 68.5214C48.7935 69.7678 48.4832 70.8463 47.6539 71.8243C47.1463 72.4229 46.7371 73.0998 46.7837 73.9061C46.8201 74.5356 47.0793 75.1047 47.5464 75.5769C48.0851 76.1215 48.7456 76.4037 49.4992 76.517C49.6071 76.5332 49.7132 76.5602 49.8364 76.5856C48.951 77.6243 46.4473 78.5334 44.3084 77.7756C42.7912 77.2381 41.2814 75.2297 41.5214 73.8606C41.6652 74.1321 41.7926 74.3726 41.956 74.6809C42.1397 73.8593 42.2843 73.1226 42.4719 72.3963C42.7164 71.4499 42.528 70.6616 41.6968 70.0525C41.5601 69.9524 41.4826 69.7763 41.3655 69.5993ZM43.5155 72.4067C43.4747 72.6264 43.4228 72.8448 43.3948 73.0661C43.2208 74.4423 43.4224 75.6798 44.7193 76.5364C45.4289 77.0051 46.6308 77.3571 47.1723 77.2189C46.869 77.014 46.5609 76.806 46.2529 76.598C46.2757 76.5626 46.2985 76.5271 46.3213 76.4917C46.72 76.6147 47.1125 76.7652 47.5193 76.853C47.9219 76.9399 48.3441 76.9995 48.7838 76.7029C48.6568 76.6641 48.6002 76.6357 48.5414 76.6305C47.0931 76.5038 45.6088 74.8103 46.3043 73.1601C46.549 72.5794 46.9172 72.0357 47.2977 71.5231C48.3214 70.1443 48.1427 68.2124 46.3715 67.4401C45.7698 67.1777 45.132 67.0806 44.5138 67.4362C44.9742 67.8376 45.4058 68.2138 45.8374 68.5901C45.2439 68.467 44.7452 68.241 44.2303 68.058C43.8609 67.9268 43.3998 67.8817 43.2041 68.2466C43.0744 68.4884 43.1127 68.9378 43.2674 69.1784C43.9233 70.1988 43.8044 71.2497 43.5155 72.4067Z" fill="#D33102"/>
<path d="M39.1977 63.8958C39.6122 63.632 40.004 63.3603 40.4362 63.1793C41.3084 62.8142 41.9372 62.9799 42.5725 63.7075C42.8232 63.9947 43.0773 64.1591 43.4932 63.9509C43.931 63.8822 44.3342 63.7757 44.7383 63.7722C45.342 63.767 45.8469 64.1623 46.0018 64.674C46.1641 65.2103 45.9536 65.6661 45.3267 65.9498C44.3598 66.3874 43.3693 66.7756 42.3945 67.1974C41.858 67.4296 41.3333 67.6876 40.7667 67.951C40.3455 66.4084 39.3285 66.3914 38.0301 67.0414C38.0382 65.9998 38.3119 65.1621 38.8828 64.4092C38.9979 64.2573 39.0904 64.0894 39.1977 63.8958ZM39.9339 64.6697C40.7607 64.2505 41.9702 64.6573 41.7074 65.9504C41.6541 66.2126 41.7348 66.5004 41.7537 66.7763C41.8103 66.7802 41.8668 66.7841 41.9234 66.7879C42.07 66.5354 42.2167 66.2828 42.3874 65.9889C42.5075 66.1647 42.5937 66.2909 42.675 66.4099C43.0631 66.2172 43.4266 66.0413 43.7845 65.855C43.8497 65.8211 43.9255 65.7521 43.9393 65.6877C44.0873 65.0003 44.4656 64.45 45.0676 63.9725C44.0611 63.9219 43.4842 64.476 42.9696 65.1058C42.8474 64.9105 42.7635 64.7252 42.6321 64.5804C42.4972 64.4317 42.2617 64.3532 42.164 64.1909C41.6909 63.4049 41.4896 63.3295 40.6249 63.6991C40.5043 63.7507 40.3822 63.799 40.2631 63.8534C39.4171 64.2392 38.6748 65.2611 38.686 66.0692C38.8608 65.7946 38.9876 65.5296 39.1765 65.3165C39.3777 65.0895 39.6378 64.9116 39.9339 64.6697Z" fill="#D33102"/>
<path d="M47.6838 72.9746C47.6918 73.013 47.6736 73.0676 47.632 73.1413C47.6249 73.1039 47.6412 73.0474 47.6838 72.9746Z" fill="#D0D4D7"/>
<path d="M76.8117 82.9051C76.7871 83.0042 76.7763 83.0743 76.7656 83.1445C76.7938 83.1571 76.822 83.1697 76.8502 83.1823C77.1886 82.743 77.527 82.3036 77.9364 81.772C78.1284 82.6224 77.9542 83.3216 77.561 83.9169C77.068 84.6635 76.4471 85.33 75.8894 86.037C75.3505 86.7201 74.8198 87.4093 74.2917 88.1003C74.241 88.1666 74.2343 88.2644 74.2468 88.3811C75.6483 87.173 77.0842 86.0351 78.7959 85.291C78.8318 85.3189 78.8677 85.3467 78.9036 85.3745C78.8218 85.5298 78.761 85.7003 78.6549 85.8381C77.3189 87.5748 75.6569 88.9767 73.7833 90.1296C72.4645 90.9411 71.0793 91.6513 69.7197 92.3998C69.5303 92.5041 69.3176 92.5685 69.0497 92.5626C69.5454 91.9785 70.041 91.3943 70.4928 90.8618C70.1733 90.6831 69.7926 90.5858 69.7651 90.4299C69.7137 90.1376 69.7549 89.6943 69.952 89.5178C71.5436 88.0915 72.5176 86.257 73.6241 84.5026C74.4415 83.2065 75.3404 81.9547 76.7272 81.1455C77.0325 80.9674 77.3693 80.8401 77.6917 80.6895C77.7278 80.7186 77.764 80.7478 77.8002 80.7769C77.4753 81.4767 77.1505 82.1765 76.8117 82.9051Z" fill="#D0D4D7"/>
<path d="M68.8588 92.7062C68.857 92.7022 68.8605 92.7102 68.8588 92.7062V92.7062Z" fill="#D0D4D7"/>
<path d="M79.0578 85.2176C79.0519 85.2206 79.0637 85.2147 79.0578 85.2176V85.2176Z" fill="#D0D4D7"/>
<path d="M12.775 97.8414C11.9048 97.3576 11.4633 96.5516 11.1779 95.683C10.7149 94.2742 10.7627 92.8419 11.2838 91.4544C11.575 90.679 11.9369 89.9206 12.3518 89.2006C12.5384 88.8769 12.8981 88.606 13.2417 88.4189C13.6746 88.1833 14.1271 88.3715 14.4954 88.8035C14.8171 89.1808 14.5566 89.4824 14.3329 89.7383C13.7569 90.3973 13.7899 91.1619 13.9118 91.9214C14.0487 92.7749 13.9655 93.4825 13.1396 94.0145C12.6057 94.3586 12.3504 94.9506 12.3981 95.5605C12.4559 96.3 12.643 97.0301 12.7751 97.8021C12.776 97.84 12.775 97.8414 12.775 97.8414Z" fill="#FDAF82"/>
<path d="M36.8334 51.6661C36.8339 51.6667 36.8497 51.6426 36.8497 51.6426C36.8497 51.6426 36.8482 51.6583 36.84 51.6616C36.8317 51.6649 36.833 51.6656 36.8334 51.6661Z" fill="#FDAF82"/>
<path d="M63.1655 32.6556C61.0036 31.7634 58.7743 31.306 56.4797 31.1105C55.4652 31.0241 54.4517 30.9256 53.4387 30.8239C53.2768 30.8076 53.0778 30.7901 52.9699 30.6947C52.7898 30.5352 52.5674 30.3167 52.5582 30.1148C52.5517 29.9714 52.8552 29.7005 53.0407 29.6825C54.0367 29.5854 55.0443 29.4593 56.0381 29.5127C57.7834 29.6065 59.4926 29.9415 61.1529 30.5094C63.4208 31.285 65.4667 32.4092 67.2008 34.0307C67.8223 34.6117 68.3163 35.2928 68.4729 36.1489C68.4922 36.2543 68.4882 36.3637 68.4525 36.5065C67.0197 34.803 65.2655 33.5341 63.1655 32.6556Z" fill="#F7E8D9"/>
<path d="M49.601 33.1339C50.0014 32.3509 50.8012 32.1654 51.5565 31.996C52.9649 31.6802 54.3978 31.7732 55.8319 31.8652C57.8072 31.9919 59.703 32.4399 61.5531 33.0845C63.3114 33.6971 64.9679 34.5075 66.4757 35.5931C67.4438 36.2901 67.9604 37.2388 68.1865 38.3558C68.2247 38.5441 68.159 38.7521 68.0968 38.9581C67.4527 37.1589 66.1498 35.9061 64.5467 34.9658C63.6686 34.4508 62.681 34.0505 61.6892 33.7918C59.8169 33.3034 57.9078 32.9455 56.0102 32.5505C53.9623 32.1243 51.9583 32.2531 50.0156 33.0506C49.9108 33.0936 49.7934 33.1075 49.6426 33.1356C49.6035 33.1363 49.601 33.1339 49.601 33.1339Z" fill="#F7E8D9"/>
<path d="M49.606 33.1373C49.582 33.1555 49.557 33.1723 49.5319 33.1891C49.5443 33.172 49.5566 33.1548 49.5857 33.1356C49.6025 33.1335 49.605 33.1359 49.606 33.1373Z" fill="#F7E8D9"/>
<path d="M42.7723 42.6408C42.9084 42.8179 43.0345 43.0032 43.1824 43.1706C43.9761 44.0693 44.9902 44.5786 46.1906 44.7526C46.2879 44.7667 46.3869 44.7726 46.4826 44.7933C46.527 44.8029 46.5653 44.8389 46.6388 44.882C45.9553 45.3945 45.2983 45.9084 44.6162 46.3887C44.332 46.5888 44.0342 46.4665 43.8207 46.2319C43.6148 46.0057 43.4067 45.7666 43.269 45.4995C42.9758 44.9304 42.4856 44.7373 41.8771 44.6536C39.993 44.3944 38.6055 43.4367 37.8374 41.743C37.6863 41.4098 37.7041 40.8822 37.8734 40.5565C38.5236 39.3059 40.9408 38.9372 41.7433 40.3874C40.9765 40.509 40.521 41.1357 40.7675 41.7241C41.0441 42.3847 42.0591 42.8488 42.7723 42.6408Z" fill="#F8775A"/>
<path d="M42.7815 42.6019C42.0591 42.8485 41.0441 42.3844 40.7674 41.7239C40.521 41.1354 40.9764 40.5087 41.7528 40.418C42.6949 40.7788 43.0616 41.5688 42.7815 42.6019Z" fill="#FC9372"/>
<path d="M15.5003 84.353C15.4982 84.348 15.5024 84.3581 15.5003 84.353V84.353Z" fill="#D0D4D7"/>
<path d="M28.0242 70.2862C27.7808 69.9115 27.5291 69.5415 27.2981 69.1597C27.2134 69.0196 27.1776 68.8516 27.2048 68.6514C27.4947 68.9177 27.7533 69.2291 28.0798 69.4428C29.8966 70.6315 31.926 69.9241 32.8949 67.9637C33.2503 67.2446 33.5556 66.4723 34.3253 66.0657C34.5992 65.921 35.0051 65.8193 35.2693 65.9133C35.4635 65.9823 35.6029 66.3943 35.6311 66.6666C35.7057 67.3888 35.8501 68.1457 35.7085 68.8392C35.3746 70.4744 33.9989 71.5793 32.2724 71.8353C30.7354 72.0631 29.4159 71.6186 28.2096 70.7506C28.084 70.6602 28.0448 70.4569 28.0043 70.3109C28.0665 70.3154 28.09 70.315 28.1135 70.3146C28.0837 70.3051 28.054 70.2957 28.0242 70.2862Z" fill="#F74512"/>
<path d="M33.2982 66.1523C33.3383 66.0325 33.4135 65.9063 33.5178 65.7656C33.4757 65.8828 33.4045 66.0143 33.2982 66.1523Z" fill="#AF2505"/>
<path d="M33.1018 66.524C33.1166 66.4186 33.1639 66.3025 33.2404 66.1699C33.2245 66.2734 33.1794 66.3933 33.1018 66.524Z" fill="#AF2505"/>
<path d="M32.8051 66.9185C32.8198 66.8405 32.8665 66.752 32.94 66.6484C32.9236 66.7249 32.8803 66.8165 32.8051 66.9185Z" fill="#AF2505"/>
<path d="M27.6785 70.2434C27.6724 70.2475 27.6847 70.2392 27.6785 70.2434V70.2434Z" fill="#F74512"/>
<path d="M65.6428 40.9325C65.6817 42.2289 65.6579 43.4756 65.0688 44.6295C64.7103 45.3319 64.3016 46.006 63.5486 46.4006C63.0066 46.6846 62.5099 46.5574 62.2177 46.0406C61.7154 45.1523 61.9426 44.1038 62.7986 43.5531C64.0646 42.7387 65.0473 41.7082 65.6426 40.3027C65.6426 40.4977 65.6426 40.6927 65.6428 40.9325Z" fill="#7B3C35"/>
<path d="M28.7131 131.928C28.1477 128.468 27.5843 125.049 26.9975 121.488C27.4175 121.653 27.6836 121.758 27.9499 121.862C28.4844 122.071 29.0168 122.286 29.5541 122.488C29.8674 122.606 30.0057 122.795 30.0085 123.139C30.0289 125.662 30.0544 128.186 30.1052 130.709C30.1543 133.15 30.2163 135.591 30.3099 138.031C30.3679 139.543 30.4959 141.053 30.5909 142.564C30.5978 142.673 30.5918 142.782 30.5134 142.898C29.914 139.256 29.3145 135.613 28.7131 131.928Z" fill="#1D3746"/>
<path d="M27.4085 143.441C25.6019 143.441 23.8417 143.441 22.0837 143.441C23.227 142.346 26.6705 142.292 28.2245 143.441C27.8883 143.441 27.6717 143.441 27.4085 143.441Z" fill="#1D3746"/>
<path d="M62.9338 134.839C63.789 137.09 64.6325 139.307 65.472 141.524C65.5298 141.677 65.5585 141.84 65.5102 142.024C64.898 141.124 64.2741 140.231 63.6764 139.322C62.8534 138.071 62.0284 136.82 61.2438 135.545C60.1404 133.754 59.0328 131.962 58.0002 130.132C56.4844 127.445 55.0277 124.726 53.5578 122.015C53.0833 121.14 52.6474 120.245 52.1923 119.36C52.0829 119.147 52.0481 118.98 52.3475 118.872C53.2251 118.556 54.1057 118.244 54.9665 117.888C56.1333 117.405 56.1691 117.393 56.5951 118.504C57.0189 119.61 57.3876 120.736 57.8134 121.841C58.3543 123.244 58.9375 124.632 59.4859 126.033C60.2739 128.047 61.0432 130.067 61.8282 132.082C62.1831 132.992 62.5563 133.896 62.9338 134.839Z" fill="#1D3746"/>
<path d="M70.115 141.611C72.0614 141.273 73.8506 141.445 75.4256 142.679C76.0107 143.137 76.6525 143.528 77.3647 144.015C77.0116 144.015 76.743 144.028 76.476 144.013C74.5045 143.901 72.523 143.824 70.6414 143.167C70.141 142.992 69.6868 142.675 69.2386 142.385C68.96 142.204 68.9714 141.995 69.3305 141.879C69.5804 141.798 69.8267 141.706 70.115 141.611Z" fill="#1D3746"/>
<path d="M65.693 142.241C65.688 142.245 65.698 142.238 65.693 142.241V142.241Z" fill="#1D3746"/>
<path d="M24.3708 103.805C24.2637 104.328 24.2018 104.833 24.0266 105.298C23.8994 105.636 23.5396 105.92 23.1685 105.754C22.9101 105.638 22.6323 105.28 22.6111 105.012C22.5736 104.54 22.6691 104.036 22.8162 103.578C22.9379 103.2 23.2249 102.855 23.7238 102.923C24.2107 102.988 24.2934 103.387 24.3708 103.805Z" fill="#0F2837"/>
<path d="M28.0345 103.992C28.6436 103.588 29.0615 103.708 29.2455 104.346C29.4467 105.045 29.3348 105.723 28.8498 106.279C28.6879 106.464 28.3221 106.634 28.1066 106.583C27.8842 106.53 27.6307 106.226 27.5668 105.988C27.3768 105.279 27.5082 104.599 28.0345 103.992Z" fill="#0F2837"/>
<path d="M51.8795 108.879C51.8988 108.828 51.9181 108.777 51.958 108.706C51.9787 108.686 51.9827 108.689 51.9847 108.691C51.9658 108.743 51.945 108.794 51.9026 108.862C51.881 108.881 51.8795 108.879 51.8795 108.879Z" fill="#D0D4D7"/>
<path d="M51.7902 108.979L51.7639 109.007C51.7639 109.007 51.7615 108.98 51.7732 108.977C51.7849 108.975 51.7902 108.979 51.7902 108.979Z" fill="#D0D4D7"/>
<path d="M51.7803 108.975C51.7947 108.946 51.8157 108.923 51.8612 108.892C51.8813 108.88 51.8828 108.881 51.8833 108.881C51.8684 108.909 51.8489 108.933 51.8063 108.967C51.7872 108.981 51.7824 108.977 51.7803 108.975Z" fill="#D0D4D7"/>
<path d="M38.3697 104.706C38.3646 104.709 38.3748 104.703 38.3697 104.706V104.706Z" fill="#D0D4D7"/>
<path d="M34.011 81.0152C34.0414 80.2864 34.3075 79.687 34.8839 79.2845C35.1019 79.1323 35.5167 79.0333 35.7227 79.1356C35.9329 79.24 36.1 79.6197 36.1045 79.8818C36.1153 80.5103 35.8314 81.0607 35.3418 81.4822C34.6987 82.036 34.0487 81.8072 34.011 81.0152Z" fill="#233A48"/>
<path d="M65.7405 49.3613C65.7399 49.3607 65.7597 49.3359 65.7597 49.3359C65.7597 49.3359 65.7593 49.3554 65.7508 49.3591C65.7423 49.3628 65.7411 49.3619 65.7405 49.3613Z" fill="#FDAF82"/>
<path d="M86.1125 18.7574C87.4702 20.2062 88.276 21.864 88.5193 23.7794C88.7806 25.8361 88.3729 27.763 87.2455 29.5115C86.5509 30.5889 85.6356 31.4415 84.2266 31.6197C82.2426 31.8707 80.2006 30.248 79.9817 28.3106C79.8462 27.1109 80.0899 25.9611 80.2536 24.7995C80.4167 23.642 80.5154 22.4936 79.9027 21.4402C79.6049 20.9282 79.1486 20.503 78.7197 19.9848C78.8336 19.9018 79.0493 19.7711 79.2324 19.6063C79.9175 18.9897 80.6339 18.3989 81.261 17.73C82.3507 16.5679 83.3832 16.7365 84.5596 17.4694C85.1177 17.817 85.5812 18.3073 86.1125 18.7574Z" fill="#F8E8D8"/>
<path d="M58.3189 62.7051C58.2948 62.7779 58.2703 62.8504 58.2459 62.9229C58.2216 62.9124 58.1972 62.9019 58.1728 62.8914C58.2058 62.8386 58.2387 62.7857 58.2949 62.7187C58.3182 62.7046 58.3187 62.7049 58.3189 62.7051Z" fill="#AF2505"/>
<path d="M54.247 65.1456C54.2523 65.1396 54.2705 65.1609 54.2705 65.1609C54.2705 65.1609 54.2417 65.1515 54.247 65.1456Z" fill="#AF2505"/>
<path d="M54.5045 64.9599C54.4993 64.9631 54.5097 64.9567 54.5045 64.9599V64.9599Z" fill="#AF2505"/>
<path d="M58.07 63.1378C58.0648 63.1413 58.0752 63.1342 58.07 63.1378V63.1378Z" fill="#AF2505"/>
<path d="M43.5272 72.367C43.8045 71.2499 43.9233 70.199 43.2674 69.1786C43.1127 68.938 43.0744 68.4886 43.2041 68.2468C43.3998 67.8819 43.8609 67.927 44.2303 68.0582C44.7452 68.2412 45.2439 68.4672 45.8374 68.5903C45.4058 68.214 44.9742 67.8378 44.5138 67.4364C45.132 67.0808 45.7699 67.1779 46.3715 67.4403C48.1427 68.2126 48.3214 70.1445 47.2978 71.5233C46.9172 72.0359 46.549 72.5796 46.3043 73.1603C45.6088 74.8105 47.0931 76.504 48.5414 76.6307C48.6002 76.6359 48.6568 76.6643 48.7838 76.7031C48.3441 76.9997 47.9219 76.9401 47.5193 76.8532C47.1125 76.7654 46.72 76.6149 46.3213 76.4919C46.2985 76.5273 46.2757 76.5628 46.2529 76.5982C46.561 76.8062 46.869 77.0142 47.1724 77.2191C46.6308 77.3573 45.429 77.0053 44.7193 76.5366C43.4224 75.68 43.2208 74.4425 43.3948 73.0662C43.4228 72.845 43.4747 72.6266 43.5272 72.367Z" fill="#F74512"/>
<path d="M39.903 64.6903C39.6377 64.9109 39.3777 65.0888 39.1765 65.3158C38.9876 65.529 38.8608 65.7939 38.686 66.0685C38.6748 65.2604 39.4171 64.2385 40.2631 63.8527C40.3822 63.7983 40.5043 63.75 40.6249 63.6985C41.4895 63.3289 41.6909 63.4042 42.164 64.1902C42.2617 64.3525 42.4971 64.431 42.6321 64.5797C42.7635 64.7245 42.8474 64.9098 42.9695 65.1051C43.4842 64.4753 44.0611 63.9212 45.0676 63.9719C44.4656 64.4493 44.0873 64.9996 43.9393 65.687C43.9255 65.7514 43.8497 65.8204 43.7845 65.8544C43.4266 66.0406 43.0631 66.2166 42.675 66.4092C42.5937 66.2902 42.5075 66.164 42.3874 65.9882C42.2167 66.2821 42.07 66.5347 41.9233 66.7872C41.8668 66.7834 41.8103 66.7795 41.7537 66.7756C41.7348 66.4997 41.6541 66.2119 41.7074 65.9498C41.9702 64.6566 40.7607 64.2498 39.903 64.6903Z" fill="#F74512"/>
<path d="M70.6404 90.5907C70.6354 90.5936 70.6455 90.5878 70.6404 90.5907V90.5907Z" fill="#F7E7D7"/>
<path d="M28.0233 70.2871C28.0546 70.296 28.085 70.3059 28.1153 70.3158C28.0914 70.3162 28.0674 70.3166 28.0321 70.3035C28.0209 70.29 28.0223 70.288 28.0233 70.2871Z" fill="#D33102"/>
<path d="M45.893 68.8958C45.8916 68.8915 45.8944 68.9001 45.893 68.8958V68.8958Z" fill="#D33102"/>
<path d="M46.0874 76.2903C46.0854 76.286 46.0895 76.2945 46.0874 76.2903V76.2903Z" fill="#D33102"/>
<path d="M45.8914 76.1929C45.8896 76.1876 45.8932 76.1982 45.8914 76.1929V76.1929Z" fill="#D33102"/>
</svg>
