<svg width="28" height="27" viewBox="0 0 28 27" fill="none" xmlns="http://www.w3.org/2000/svg">
<g filter="url(#filter0_d_525_2061)">
<path d="M8.16666 4.13398H3.96666C3.22406 4.13398 2.51187 4.42898 1.98676 4.95409C1.46166 5.47919 1.16666 6.19138 1.16666 6.93398V19.534C1.16666 20.2766 1.46166 20.9888 1.98676 21.5139C2.51187 22.039 3.22406 22.334 3.96666 22.334H16.5667C17.3093 22.334 18.0215 22.039 18.5466 21.5139C19.0717 20.9888 19.3667 20.2766 19.3667 19.534V15.334M13.7667 5.53398C13.7667 6.64789 14.2092 7.71618 14.9968 8.50383C15.7845 9.29149 16.8528 9.73398 17.9667 9.73398C19.0806 9.73398 20.1489 9.29149 20.9365 8.50383C21.7242 7.71618 22.1667 6.64789 22.1667 5.53398C22.1667 4.42008 21.7242 3.35179 20.9365 2.56414C20.1489 1.77648 19.0806 1.33398 17.9667 1.33398C16.8528 1.33398 15.7845 1.77648 14.9968 2.56414C14.2092 3.35179 13.7667 4.42008 13.7667 5.53398Z" stroke="black" stroke-width="2" stroke-linecap="round" stroke-linejoin="round" shape-rendering="crispEdges"/>
</g>
<defs>
<filter id="filter0_d_525_2061" x="-3.83334" y="0.333984" width="31" height="31" filterUnits="userSpaceOnUse" color-interpolation-filters="sRGB">
<feFlood flood-opacity="0" result="BackgroundImageFix"/>
<feColorMatrix in="SourceAlpha" type="matrix" values="0 0 0 0 0 0 0 0 0 0 0 0 0 0 0 0 0 0 127 0" result="hardAlpha"/>
<feOffset dy="4"/>
<feGaussianBlur stdDeviation="2"/>
<feComposite in2="hardAlpha" operator="out"/>
<feColorMatrix type="matrix" values="0 0 0 0 0 0 0 0 0 0 0 0 0 0 0 0 0 0 0.25 0"/>
<feBlend mode="normal" in2="BackgroundImageFix" result="effect1_dropShadow_525_2061"/>
<feBlend mode="normal" in="SourceGraphic" in2="effect1_dropShadow_525_2061" result="shape"/>
</filter>
</defs>
</svg>
